<svg xmlns="http://www.w3.org/2000/svg" xmlns:xlink="http://www.w3.org/1999/xlink" xmlns:lucid="lucid" width="446.33" height="405.5"><g transform="translate(1020.5000000516978 2965.500000012812)" lucid:page-tab-id="0_0"><path d="M-1020-2959a6 6 0 0 1 6-6h153.33a6 6 0 0 1 6 6v38a6 6 0 0 1-6 6H-1014a6 6 0 0 1-6-6z" stroke="#3a414a" fill="#fff"/><use xlink:href="#a" transform="matrix(1,0,0,1,-1015,-2960) translate(61.95061728395062 25.27777777777778)"/><path d="M-740-2874a6 6 0 0 1 6-6h153.33a6 6 0 0 1 6 6v38a6 6 0 0 1-6 6H-734a6 6 0 0 1-6-6z" stroke="#3a414a" fill="#fff"/><use xlink:href="#b" transform="matrix(1,0,0,1,-735,-2875) translate(61.95061728395062 25.27777777777778)"/><path d="M-934.67-2904.5v10.42m0 10.43v20.85m0 10.42v20.85m0 10.42v20.84m0 10.43v20.84m0 10.44v20.85m0 10.4v20.86m0 10.43v20.83m0 10.43v20.85m0 10.43v20.85m0 10.42v20.85m0 10.43v10.42M-934.67-2904.5v-.5M-934.67-2560.5v.5M-660.03-2829v9.94m0 9.95v19.88m0 9.94v19.9m0 9.94v19.88m0 9.95v19.88m.02 9.94v19.9m0 9.94v19.88m0 9.95v19.88m0 9.94v19.9m0 9.94v9.94" stroke="#3a414a" fill="none"/><path d="M-659.53-2829h-1v-.5h1z" stroke="#3a414a" stroke-width=".05" fill="#3a414a"/><path d="M-660-2560.5v.5" stroke="#3a414a" fill="none"/><path d="M-946.17-2852.67a6 6 0 0 1 6-6H-926a6 6 0 0 1 6 6V-2626a6 6 0 0 1-6 6h-14.17a6 6 0 0 1-6-6zM-666.67-2813a6 6 0 0 1 6-6h6.67a6 6 0 0 1 6 6v42.04a6 6 0 0 1-6 6h-6.67a6 6 0 0 1-6-6z" stroke="#3a414a" fill="#fff"/><path d="M-816.43-2813.46H-919v-1h102.57zm142.46 0h-96.2v-1h96.2z" stroke="#3a414a" stroke-width=".05" fill="#3a414a"/><path d="M-919-2813.46h-.5v-1h.5z" fill="#3a414a"/><path d="M-918.96-2813.44h-.56v-1.05h.56zm-.5-1v.95h.45v-.94z" stroke="#3a414a" stroke-width=".05" fill="#3a414a"/><path d="M-668.08-2813.96l-12.9 7.63v-15.27z" fill="#3a414a"/><path d="M-667.1-2813.96l-14.4 8.5v-17zm-13.4 6.76l11.44-6.76-11.43-6.76z" stroke="#3a414a" stroke-width=".05" fill="#3a414a"/><use xlink:href="#c" transform="matrix(1,0,0,1,-816.4321040579435,-2824.6284227128895) translate(0 14.222222222222223)"/><path d="M-912.63-2772h10.2m10.22 0h20.4m10.2 0h20.42m10.2 0h20.42m10.2 0h20.42m10.2 0h20.42m10.2 0h20.42m10.2 0h20.42m10.2 0h10.2" stroke="#3a414a" fill="none"/><path d="M-918.52-2772l12.9-7.64v15.28z" stroke="#3a414a" fill="#3a414a"/><path d="M-667.17-2771.5h-.5v-1h.5zM-855.83-2699.5H-919v-1h63.17zm181.8 0h-56.8v-1h56.8z" stroke="#3a414a" stroke-width=".05" fill="#3a414a"/><path d="M-919-2699.5h-.5v-1h.5z" fill="#3a414a"/><path d="M-918.96-2699.47h-.56v-1.06h.56zm-.5-1v.94h.45v-.94z" stroke="#3a414a" stroke-width=".05" fill="#3a414a"/><path d="M-668.15-2700l-12.9 7.64v-15.28z" fill="#3a414a"/><path d="M-667.17-2700l-14.4 8.5v-17zm-13.4 6.76l11.44-6.76-11.43-6.76z" stroke="#3a414a" stroke-width=".05" fill="#3a414a"/><use xlink:href="#d" transform="matrix(1,0,0,1,-855.827167168178,-2710.6666666666665) translate(0 14.222222222222223)"/><path d="M-912.63-2663.35h10.23m10.24 0h20.46m10.23 0H-841m10.22 0h20.46m10.23 0h20.48m10.23 0h20.47m10.23 0h20.46m10.23 0h20.46m10.23 0h10.22" stroke="#3a414a" fill="none"/><path d="M-918.52-2663.35l12.9-7.63v15.27z" stroke="#3a414a" fill="#3a414a"/><path d="M-666.46-2663.05l.12.2h-.76v-1h.3z" stroke="#3a414a" stroke-width=".05" fill="#3a414a"/><path d="M-666.67-2708.04a6 6 0 0 1 6-6h6.67a6 6 0 0 1 6 6v42.04a6 6 0 0 1-6 6h-6.67a6 6 0 0 1-6-6z" stroke="#3a414a" fill="#fff"/><defs><path fill="#3a414a" d="M141 0L90-78 38 0H4l68-98-65-92h35l48 74 47-74h35l-64 92 68 98h-35" id="e"/><path fill="#3a414a" d="M33-154v-36h34v36H33zM33 0v-36h34V0H33" id="f"/><path fill="#3a414a" d="M195 0l-74-108L45 0H8l94-129-87-119h37l69 98 67-98h37l-84 118L233 0h-38" id="g"/><g id="a"><use transform="matrix(0.06172839506172839,0,0,0.06172839506172839,0,0)" xlink:href="#e"/><use transform="matrix(0.06172839506172839,0,0,0.06172839506172839,11.11111111111111,0)" xlink:href="#f"/><use transform="matrix(0.06172839506172839,0,0,0.06172839506172839,17.28395061728395,0)" xlink:href="#g"/><path fill="#3a414a" d="M-1.1 1.54h34.3v1.63H-1.1z"/></g><path fill="#3a414a" d="M179-190L93 31C79 59 56 82 12 73V49c39 6 53-20 64-50L1-190h34L92-34l54-156h33" id="h"/><path fill="#3a414a" d="M137-103V0h-34v-103L8-248h37l75 118 75-118h37" id="i"/><g id="b"><use transform="matrix(0.06172839506172839,0,0,0.06172839506172839,0,0)" xlink:href="#h"/><use transform="matrix(0.06172839506172839,0,0,0.06172839506172839,11.11111111111111,0)" xlink:href="#f"/><use transform="matrix(0.06172839506172839,0,0,0.06172839506172839,17.28395061728395,0)" xlink:href="#i"/><path fill="#3a414a" d="M-1.1 1.54h34.3v1.63H-1.1z"/></g><path fill="#333" d="M135-194c87-1 58 113 63 194h-50c-7-57 23-157-34-157-59 0-34 97-39 157H25l-1-190h47c2 12-1 28 3 38 12-26 28-41 61-42" id="j"/><path fill="#333" d="M185-48c-13 30-37 53-82 52C43 2 14-33 14-96s30-98 90-98c62 0 83 45 84 108H66c0 31 8 55 39 56 18 0 30-7 34-22zm-45-69c5-46-57-63-70-21-2 6-4 13-4 21h74" id="k"/><path fill="#333" d="M231 0h-52l-39-155L100 0H48L-1-190h46L77-45c9-52 24-97 36-145h53l37 145 32-145h46" id="l"/><path fill="#333" d="M67-93c0 74 22 123 53 168H70C40 30 18-18 18-93s22-123 52-168h50c-32 44-53 94-53 168" id="m"/><path fill="#333" d="M102-93c0 74-22 123-52 168H0C30 29 54-18 53-93c0-74-22-123-53-168h50c30 45 52 94 52 168" id="n"/><g id="c"><use transform="matrix(0.04938271604938272,0,0,0.04938271604938272,0,0)" xlink:href="#j"/><use transform="matrix(0.04938271604938272,0,0,0.04938271604938272,10.814814814814815,0)" xlink:href="#k"/><use transform="matrix(0.04938271604938272,0,0,0.04938271604938272,20.69135802469136,0)" xlink:href="#l"/><use transform="matrix(0.04938271604938272,0,0,0.04938271604938272,34.51851851851852,0)" xlink:href="#m"/><use transform="matrix(0.04938271604938272,0,0,0.04938271604938272,40.39506172839506,0)" xlink:href="#n"/></g><path fill="#333" d="M88-194c31-1 46 15 58 34l-1-101h50l1 261h-48c-2-10 0-23-3-31C134-8 116 4 84 4 32 4 16-41 15-95c0-56 19-97 73-99zm17 164c33 0 40-30 41-66 1-37-9-64-41-64s-38 30-39 65c0 43 13 65 39 65" id="o"/><path fill="#333" d="M110-194c64 0 96 36 96 99 0 64-35 99-97 99-61 0-95-36-95-99 0-62 34-99 96-99zm-1 164c35 0 45-28 45-65 0-40-10-65-43-65-34 0-45 26-45 65 0 36 10 65 43 65" id="p"/><path fill="#333" d="M169-182c-1-43-94-46-97-3 18 66 151 10 154 114 3 95-165 93-204 36-6-8-10-19-12-30l50-8c3 46 112 56 116 5-17-69-150-10-154-114-4-87 153-88 188-35 5 8 8 18 10 28" id="q"/><path fill="#333" d="M220-157c-53 9-28 100-34 157h-49v-107c1-27-5-49-29-50C55-147 81-57 75 0H25l-1-190h47c2 12-1 28 3 38 10-53 101-56 108 0 13-22 24-43 59-42 82 1 51 116 57 194h-49v-107c-1-25-5-48-29-50" id="r"/><path fill="#333" d="M115-3C79 11 28 4 28-45v-112H4v-33h27l15-45h31v45h36v33H77v99c-1 23 16 31 38 25v30" id="s"/><path fill="#333" d="M114-157C55-157 80-60 75 0H25v-261h50l-1 109c12-26 28-41 61-42 86-1 58 113 63 194h-50c-7-57 23-157-34-157" id="t"/><path fill="#333" d="M25-224v-37h50v37H25zM25 0v-190h50V0H25" id="u"/><path fill="#333" d="M195-6C206 82 75 100 31 46c-4-6-6-13-8-21l49-6c3 16 16 24 34 25 40 0 42-37 40-79-11 22-30 35-61 35-53 0-70-43-70-97 0-56 18-96 73-97 30 0 46 14 59 34l2-30h47zm-90-29c32 0 41-27 41-63 0-35-9-62-40-62-32 0-39 29-40 63 0 36 9 62 39 62" id="v"/><g id="d"><use transform="matrix(0.04938271604938272,0,0,0.04938271604938272,0,0)" xlink:href="#o"/><use transform="matrix(0.04938271604938272,0,0,0.04938271604938272,10.814814814814815,0)" xlink:href="#p"/><use transform="matrix(0.04938271604938272,0,0,0.04938271604938272,21.62962962962963,0)" xlink:href="#q"/><use transform="matrix(0.04938271604938272,0,0,0.04938271604938272,33.48148148148148,0)" xlink:href="#p"/><use transform="matrix(0.04938271604938272,0,0,0.04938271604938272,44.2962962962963,0)" xlink:href="#r"/><use transform="matrix(0.04938271604938272,0,0,0.04938271604938272,60.09876543209877,0)" xlink:href="#k"/><use transform="matrix(0.04938271604938272,0,0,0.04938271604938272,69.97530864197532,0)" xlink:href="#s"/><use transform="matrix(0.04938271604938272,0,0,0.04938271604938272,75.85185185185186,0)" xlink:href="#t"/><use transform="matrix(0.04938271604938272,0,0,0.04938271604938272,86.66666666666667,0)" xlink:href="#u"/><use transform="matrix(0.04938271604938272,0,0,0.04938271604938272,91.60493827160494,0)" xlink:href="#j"/><use transform="matrix(0.04938271604938272,0,0,0.04938271604938272,102.41975308641975,0)" xlink:href="#v"/><use transform="matrix(0.04938271604938272,0,0,0.04938271604938272,113.23456790123456,0)" xlink:href="#m"/><use transform="matrix(0.04938271604938272,0,0,0.04938271604938272,119.1111111111111,0)" xlink:href="#n"/></g></defs></g></svg>