<svg xmlns="http://www.w3.org/2000/svg" xmlns:xlink="http://www.w3.org/1999/xlink" xmlns:lucid="lucid" width="1540" height="900"><g transform="translate(-60 20)" lucid:page-tab-id="0_0"><path d="M60-14a6 6 0 0 1 6-6h1528a6 6 0 0 1 6 6v888a6 6 0 0 1-6 6H66a6 6 0 0 1-6-6z" stroke="#000" stroke-opacity="0" fill="#fff"/><path d="M400 599.5l1.33-450.33M400 599.5v.5" stroke="#3a414a" fill="none"/><path d="M401.8 149.18h-.94v-.5h.95z" stroke="#3a414a" stroke-width=".05" fill="#3a414a"/><path d="M640 599.5V149.17M640 599.5v.5" stroke="#3a414a" fill="none"/><path d="M640.48 149.18h-.96v-.5h.96zM633.36 274.24l-.2.94-113.72-22.88v-.97zm-176-35.4v.97l-55.87-11.23.18-.93z" stroke="#3a414a" stroke-width=".05" fill="#3a414a"/><path d="M401.7 227.64l-.2.93-.5-.1.2-.93z" stroke="#3a414a" stroke-width=".05" fill="#3a414a"/><path d="M639.04 275.87l-14.17 4.94 3.02-14.96z" fill="#3a414a"/><path d="M639.95 276.06l-15.7 5.47 3.33-16.6zm-14.45 4.03l12.62-4.4-9.93-8.95z" stroke="#3a414a" stroke-width=".05" fill="#3a414a"/><use xlink:href="#a" transform="matrix(1,0,0,1,457.3654061991297,234.90039626563248) translate(0 14.222222222222223)"/><path d="M407.45 347.54l-.27-.9 45.24-13.8h3.25zm232.2-70.86l-114.07 34.8h-3.26l117.06-35.7z" stroke="#3a414a" stroke-width=".05" fill="#3a414a"/><path d="M640.14 276.53l-.5.15-.27-.9.5-.15z" stroke="#3a414a" stroke-width=".05" fill="#3a414a"/><path d="M416.26 352.34l-14.58-3.53 10.12-11.06z" fill="#3a414a"/><path d="M416.96 353l-16.17-3.92L412 336.8zm-14.4-4.46l13 3.14-3.97-13z" stroke="#3a414a" stroke-width=".05" fill="#3a414a"/><use xlink:href="#b" transform="matrix(1,0,0,1,441.7128519496031,311.4940747935265) translate(0 14.222222222222223)"/><path d="M401.2 356.4l232.1 51.33M401.22 356.4l-.5-.1" stroke="#3a414a" fill="none"/><path d="M639.04 409l-14.25 4.67 3.28-14.9z" stroke="#3a414a" fill="#3a414a"/><path d="M639.53 416.53l-232.7 77.87M639.5 416.54l.5-.17" stroke="#3a414a" fill="none"/><path d="M401.24 496.26l9.82-11.33 4.84 14.48z" stroke="#3a414a" fill="#3a414a"/><path d="M333.67 86a6 6 0 0 1 6-6H463a6 6 0 0 1 6 6v56.67a6 6 0 0 1-6 6H339.67a6 6 0 0 1-6-6z" stroke="#000" stroke-opacity="0" fill="#fff" fill-opacity="0"/><use xlink:href="#c" transform="matrix(1,0,0,1,338.66666666670545,85) translate(34.69753086419753 32.52777777777778)"/><path d="M572.33 86a6 6 0 0 1 6-6h123.34a6 6 0 0 1 6 6v56.67a6 6 0 0 1-6 6H578.33a6 6 0 0 1-6-6z" stroke="#000" stroke-opacity="0" fill="#fff" fill-opacity="0"/><use xlink:href="#d" transform="matrix(1,0,0,1,577.3333333333333,85) translate(30.345679012345684 32.52777777777778)"/><path d="M380 328.36V242M369.82 310.86l10.18 17.2 10.18-17.2M380 242.05V240" stroke="#3a414a" stroke-width="4" fill="none"/><path d="M357.83 228h39M357.85 228h-.52M396.82 228h.5M356.5 346.67h39M356.5 346.67h-.5M395.5 346.67h.5" stroke="#979ea8" fill="none"/><path d="M130 266a6 6 0 0 1 6-6h228a6 6 0 0 1 6 6v48a6 6 0 0 1-6 6H136a6 6 0 0 1-6-6z" stroke="#000" stroke-opacity="0" fill="#fff" fill-opacity="0"/><use xlink:href="#e" transform="matrix(1,0,0,1,135,265) translate(36.97530864197532 30.27777777777778)"/><path d="M140.5 120.5c0 .28-.22.5-.5.5s-.5-.22-.5-.5.22-.5.5-.5.5.22.5.5zm0 2c0 .28-.22.5-.5.5s-.5-.22-.5-.5c0-.27.22-.5.5-.5s.5.23.5.5zm0 2c0 .28-.22.5-.5.5s-.5-.22-.5-.5c0-.27.22-.5.5-.5s.5.23.5.5zm0 2c0 .28-.22.5-.5.5s-.5-.22-.5-.5c0-.27.22-.5.5-.5s.5.23.5.5zm0 2c0 .3-.22.5-.5.5s-.5-.2-.5-.5c0-.27.22-.5.5-.5s.5.23.5.5zm0 2c0 .3-.22.5-.5.5s-.5-.2-.5-.5c0-.26.22-.5.5-.5s.5.24.5.5zm0 2.02c0 .27-.22.5-.5.5s-.5-.23-.5-.5c0-.28.22-.5.5-.5s.5.22.5.5zm0 2c0 .27-.22.5-.5.5s-.5-.23-.5-.5c0-.28.22-.5.5-.5s.5.22.5.5zm0 2c0 .28-.22.5-.5.5s-.5-.22-.5-.5.22-.5.5-.5.5.22.5.5zm0 2c0 .28-.22.5-.5.5s-.5-.22-.5-.5c0-.27.22-.5.5-.5s.5.23.5.5zm0 2c0 .28-.22.5-.5.5s-.5-.22-.5-.5c0-.27.22-.5.5-.5s.5.23.5.5zm0 2c0 .28-.22.5-.5.5s-.5-.22-.5-.5c0-.27.22-.5.5-.5s.5.23.5.5zm0 2c0 .3-.22.5-.5.5s-.5-.2-.5-.5c0-.26.22-.5.5-.5s.5.24.5.5zm0 2c0 .3-.22.5-.5.5s-.5-.2-.5-.5c0-.26.22-.5.5-.5s.5.24.5.5zm0 2.02c0 .27-.22.5-.5.5s-.5-.23-.5-.5c0-.28.22-.5.5-.5s.5.22.5.5zm0 2c0 .28-.22.5-.5.5s-.5-.22-.5-.5.22-.5.5-.5.5.22.5.5zm0 2c0 .28-.22.5-.5.5s-.5-.22-.5-.5c0-.27.22-.5.5-.5s.5.23.5.5zm0 2c0 .28-.22.5-.5.5s-.5-.22-.5-.5c0-.27.22-.5.5-.5s.5.23.5.5zm0 2c0 .28-.22.5-.5.5s-.5-.22-.5-.5c0-.27.22-.5.5-.5s.5.23.5.5zm0 2c0 .3-.22.5-.5.5s-.5-.2-.5-.5c0-.27.22-.5.5-.5s.5.23.5.5zm0 2c0 .3-.22.5-.5.5s-.5-.2-.5-.5c0-.26.22-.5.5-.5s.5.24.5.5zm0 2.02c0 .27-.22.5-.5.5s-.5-.23-.5-.5c0-.28.22-.5.5-.5s.5.22.5.5zm0 2c0 .28-.22.5-.5.5s-.5-.22-.5-.5.22-.5.5-.5.5.22.5.5zm0 2c0 .28-.22.5-.5.5s-.5-.22-.5-.5.22-.5.5-.5.5.22.5.5zm0 2c0 .28-.22.5-.5.5s-.5-.22-.5-.5c0-.27.22-.5.5-.5s.5.23.5.5zm0 2c0 .28-.22.5-.5.5s-.5-.22-.5-.5c0-.27.22-.5.5-.5s.5.23.5.5zm0 2c0 .28-.22.5-.5.5s-.5-.22-.5-.5c0-.27.22-.5.5-.5s.5.23.5.5zm0 2c0 .3-.22.5-.5.5s-.5-.2-.5-.5c0-.26.22-.5.5-.5s.5.24.5.5zm0 2c0 .3-.22.5-.5.5s-.5-.2-.5-.5c0-.26.22-.5.5-.5s.5.24.5.5zm0 2.02c0 .27-.22.5-.5.5s-.5-.23-.5-.5c0-.28.22-.5.5-.5s.5.22.5.5zm0 2c0 .28-.22.5-.5.5s-.5-.22-.5-.5.22-.5.5-.5.5.22.5.5zm0 2c0 .28-.22.5-.5.5s-.5-.22-.5-.5c0-.27.22-.5.5-.5s.5.23.5.5zm0 2c0 .28-.22.5-.5.5s-.5-.22-.5-.5c0-.27.22-.5.5-.5s.5.23.5.5zm0 2c0 .28-.22.5-.5.5s-.5-.22-.5-.5c0-.27.22-.5.5-.5s.5.23.5.5zm0 2c0 .3-.22.5-.5.5s-.5-.2-.5-.5c0-.27.22-.5.5-.5s.5.23.5.5zm0 2c0 .3-.22.5-.5.5s-.5-.2-.5-.5c0-.26.22-.5.5-.5s.5.24.5.5zm0 2.02c0 .27-.22.5-.5.5s-.5-.23-.5-.5c0-.28.22-.5.5-.5s.5.22.5.5zm0 2c0 .27-.22.5-.5.5s-.5-.23-.5-.5c0-.28.22-.5.5-.5s.5.22.5.5zm0 2c0 .28-.22.5-.5.5s-.5-.22-.5-.5.22-.5.5-.5.5.22.5.5zm0 2c0 .28-.22.5-.5.5s-.5-.22-.5-.5c0-.27.22-.5.5-.5s.5.23.5.5zm0 2c0 .28-.22.5-.5.5s-.5-.22-.5-.5c0-.27.22-.5.5-.5s.5.23.5.5zm0 2c0 .28-.22.5-.5.5s-.5-.22-.5-.5c0-.27.22-.5.5-.5s.5.23.5.5zm0 2c0 .3-.22.5-.5.5s-.5-.2-.5-.5c0-.26.22-.5.5-.5s.5.24.5.5zm0 2c0 .3-.22.5-.5.5s-.5-.2-.5-.5c0-.26.22-.5.5-.5s.5.24.5.5zm0 2.02c0 .27-.22.5-.5.5s-.5-.23-.5-.5c0-.28.22-.5.5-.5s.5.22.5.5zm0 2c0 .28-.22.5-.5.5s-.5-.22-.5-.5.22-.5.5-.5.5.22.5.5zm0 2c0 .28-.22.5-.5.5s-.5-.22-.5-.5c0-.27.22-.5.5-.5s.5.23.5.5zm0 2c0 .28-.22.5-.5.5s-.5-.22-.5-.5c0-.27.22-.5.5-.5s.5.23.5.5zm0 2c0 .28-.22.5-.5.5s-.5-.22-.5-.5c0-.27.22-.5.5-.5s.5.23.5.5zm0 2c0 .3-.22.5-.5.5s-.5-.2-.5-.5c0-.27.22-.5.5-.5s.5.23.5.5zm0 2c0 .3-.22.5-.5.5s-.5-.2-.5-.5c0-.26.22-.5.5-.5s.5.24.5.5zm0 2c0 .3-.22.5-.5.5s-.5-.2-.5-.5c0-.26.22-.5.5-.5s.5.24.5.5zm0 2.02c0 .27-.22.5-.5.5s-.5-.23-.5-.5c0-.28.22-.5.5-.5s.5.22.5.5zm0 2c0 .28-.22.5-.5.5s-.5-.22-.5-.5c0-.27.22-.5.5-.5s.5.23.5.5zm0 2c0 .28-.22.5-.5.5s-.5-.22-.5-.5c0-.27.22-.5.5-.5s.5.23.5.5zm0 2c0 .28-.22.5-.5.5s-.5-.22-.5-.5c0-.27.22-.5.5-.5s.5.23.5.5zm0 2c0 .3-.22.5-.5.5s-.5-.2-.5-.5c0-.27.22-.5.5-.5s.5.23.5.5zm0 2c0 .3-.22.5-.5.5s-.5-.2-.5-.5c0-.26.22-.5.5-.5s.5.24.5.5zm0 2c0 .3-.22.5-.5.5s-.5-.2-.5-.5c0-.26.22-.5.5-.5s.5.24.5.5zm0 2.02c0 .27-.22.5-.5.5s-.5-.23-.5-.5c0-.28.22-.5.5-.5s.5.22.5.5zm0 2c0 .28-.22.5-.5.5s-.5-.22-.5-.5.22-.5.5-.5.5.22.5.5zm0 2c0 .28-.22.5-.5.5s-.5-.22-.5-.5c0-.27.22-.5.5-.5s.5.23.5.5zm0 2c0 .28-.22.5-.5.5s-.5-.22-.5-.5c0-.27.22-.5.5-.5s.5.23.5.5zm0 2c0 .28-.22.5-.5.5s-.5-.22-.5-.5c0-.27.22-.5.5-.5s.5.23.5.5zm0 2c0 .3-.22.5-.5.5s-.5-.2-.5-.5c0-.27.22-.5.5-.5s.5.23.5.5zm0 2c0 .3-.22.5-.5.5s-.5-.2-.5-.5c0-.26.22-.5.5-.5s.5.24.5.5zm0 2.02c0 .27-.22.5-.5.5s-.5-.23-.5-.5c0-.28.22-.5.5-.5s.5.22.5.5zm0 2c0 .27-.22.5-.5.5s-.5-.23-.5-.5c0-.28.22-.5.5-.5s.5.22.5.5zm0 2c0 .28-.22.5-.5.5s-.5-.22-.5-.5.22-.5.5-.5.5.22.5.5zm0 2c0 .28-.22.5-.5.5s-.5-.22-.5-.5c0-.27.22-.5.5-.5s.5.23.5.5zm0 2c0 .28-.22.5-.5.5s-.5-.22-.5-.5c0-.27.22-.5.5-.5s.5.23.5.5zm0 2c0 .28-.22.5-.5.5s-.5-.22-.5-.5c0-.27.22-.5.5-.5s.5.23.5.5zm0 2c0 .3-.22.5-.5.5s-.5-.2-.5-.5c0-.26.22-.5.5-.5s.5.24.5.5zm0 2c0 .3-.22.5-.5.5s-.5-.2-.5-.5c0-.26.22-.5.5-.5s.5.24.5.5zm0 2.02c0 .27-.22.5-.5.5s-.5-.23-.5-.5c0-.28.22-.5.5-.5s.5.22.5.5zm0 2c0 .28-.22.5-.5.5s-.5-.22-.5-.5.22-.5.5-.5.5.22.5.5zm0 2c0 .28-.22.5-.5.5s-.5-.22-.5-.5c0-.27.22-.5.5-.5s.5.23.5.5zm0 2c0 .28-.22.5-.5.5s-.5-.22-.5-.5c0-.27.22-.5.5-.5s.5.23.5.5zm0 2c0 .28-.22.5-.5.5s-.5-.22-.5-.5c0-.27.22-.5.5-.5s.5.23.5.5zm0 2c0 .3-.22.5-.5.5s-.5-.2-.5-.5c0-.27.22-.5.5-.5s.5.23.5.5zm0 2c0 .3-.22.5-.5.5s-.5-.2-.5-.5c0-.26.22-.5.5-.5s.5.24.5.5zm0 2c0 .3-.22.5-.5.5s-.5-.2-.5-.5c0-.26.22-.5.5-.5s.5.24.5.5zm0 2.02c0 .27-.22.5-.5.5s-.5-.23-.5-.5c0-.28.22-.5.5-.5s.5.22.5.5zm0 2c0 .28-.22.5-.5.5s-.5-.22-.5-.5.22-.5.5-.5.5.22.5.5zm0 2c0 .28-.22.5-.5.5s-.5-.22-.5-.5c0-.27.22-.5.5-.5s.5.23.5.5zm0 2c0 .28-.22.5-.5.5s-.5-.22-.5-.5c0-.27.22-.5.5-.5s.5.23.5.5zm0 2c0 .28-.22.5-.5.5s-.5-.22-.5-.5c0-.27.22-.5.5-.5s.5.23.5.5zm0 2c0 .3-.22.5-.5.5s-.5-.2-.5-.5c0-.27.22-.5.5-.5s.5.23.5.5zm0 2c0 .3-.22.5-.5.5s-.5-.2-.5-.5c0-.26.22-.5.5-.5s.5.24.5.5zm0 2.02c0 .27-.22.5-.5.5s-.5-.23-.5-.5c0-.28.22-.5.5-.5s.5.22.5.5zm0 2c0 .27-.22.5-.5.5s-.5-.23-.5-.5c0-.28.22-.5.5-.5s.5.22.5.5zm0 2c0 .28-.22.5-.5.5s-.5-.22-.5-.5c0-.27.22-.5.5-.5s.5.23.5.5zm0 2c0 .28-.22.5-.5.5s-.5-.22-.5-.5c0-.27.22-.5.5-.5s.5.23.5.5zm0 2c0 .28-.22.5-.5.5s-.5-.22-.5-.5c0-.27.22-.5.5-.5s.5.23.5.5zm0 2c0 .3-.22.5-.5.5s-.5-.2-.5-.5c0-.27.22-.5.5-.5s.5.23.5.5zm0 2c0 .3-.22.5-.5.5s-.5-.2-.5-.5c0-.26.22-.5.5-.5s.5.24.5.5zm0 2c0 .3-.22.5-.5.5s-.5-.2-.5-.5c0-.26.22-.5.5-.5s.5.24.5.5zm0 2.02c0 .27-.22.5-.5.5s-.5-.23-.5-.5c0-.28.22-.5.5-.5s.5.22.5.5zm0 2c0 .28-.22.5-.5.5s-.5-.22-.5-.5.22-.5.5-.5.5.22.5.5zm0 2c0 .28-.22.5-.5.5s-.5-.22-.5-.5c0-.27.22-.5.5-.5s.5.23.5.5zm0 2c0 .28-.22.5-.5.5s-.5-.22-.5-.5c0-.27.22-.5.5-.5s.5.23.5.5zm0 2c0 .28-.22.5-.5.5s-.5-.22-.5-.5c0-.27.22-.5.5-.5s.5.23.5.5zm0 2c0 .3-.22.5-.5.5s-.5-.2-.5-.5c0-.26.22-.5.5-.5s.5.24.5.5zm0 2c0 .3-.22.5-.5.5s-.5-.2-.5-.5c0-.26.22-.5.5-.5s.5.24.5.5zm0 2.02c0 .27-.22.5-.5.5s-.5-.23-.5-.5c0-.28.22-.5.5-.5s.5.22.5.5zm0 2c0 .28-.22.5-.5.5s-.5-.22-.5-.5.22-.5.5-.5.5.22.5.5zm0 2c0 .28-.22.5-.5.5s-.5-.22-.5-.5c0-.27.22-.5.5-.5s.5.23.5.5zm0 2c0 .28-.22.5-.5.5s-.5-.22-.5-.5c0-.27.22-.5.5-.5s.5.23.5.5zm0 2c0 .28-.22.5-.5.5s-.5-.22-.5-.5c0-.27.22-.5.5-.5s.5.23.5.5zm0 2c0 .3-.22.5-.5.5s-.5-.2-.5-.5c0-.27.22-.5.5-.5s.5.23.5.5zm0 2c0 .3-.22.5-.5.5s-.5-.2-.5-.5c0-.26.22-.5.5-.5s.5.24.5.5zm0 2.02c0 .27-.22.5-.5.5s-.5-.23-.5-.5c0-.28.22-.5.5-.5s.5.22.5.5zm0 2c0 .27-.22.5-.5.5s-.5-.23-.5-.5c0-.28.22-.5.5-.5s.5.22.5.5zm0 2c0 .28-.22.5-.5.5s-.5-.22-.5-.5.22-.5.5-.5.5.22.5.5zm0 2c0 .28-.22.5-.5.5s-.5-.22-.5-.5c0-.27.22-.5.5-.5s.5.23.5.5zm0 2c0 .28-.22.5-.5.5s-.5-.22-.5-.5c0-.27.22-.5.5-.5s.5.23.5.5zm0 2c0 .28-.22.5-.5.5s-.5-.22-.5-.5c0-.27.22-.5.5-.5s.5.23.5.5zm0 2c0 .3-.22.5-.5.5s-.5-.2-.5-.5c0-.26.22-.5.5-.5s.5.24.5.5zm0 2c0 .3-.22.5-.5.5s-.5-.2-.5-.5c0-.26.22-.5.5-.5s.5.24.5.5zm0 2.02c0 .27-.22.5-.5.5s-.5-.23-.5-.5c0-.28.22-.5.5-.5s.5.22.5.5zm0 2c0 .28-.22.5-.5.5s-.5-.22-.5-.5.22-.5.5-.5.5.22.5.5zm0 2c0 .28-.22.5-.5.5s-.5-.22-.5-.5c0-.27.22-.5.5-.5s.5.23.5.5zm0 2c0 .28-.22.5-.5.5s-.5-.22-.5-.5c0-.27.22-.5.5-.5s.5.23.5.5zm0 2c0 .28-.22.5-.5.5s-.5-.22-.5-.5c0-.27.22-.5.5-.5s.5.23.5.5zm0 2c0 .3-.22.5-.5.5s-.5-.2-.5-.5c0-.27.22-.5.5-.5s.5.23.5.5zm0 2c0 .3-.22.5-.5.5s-.5-.2-.5-.5c0-.26.22-.5.5-.5s.5.24.5.5zm0 2c0 .3-.22.5-.5.5s-.5-.2-.5-.5c0-.26.22-.5.5-.5s.5.24.5.5zm0 2.02c0 .27-.22.5-.5.5s-.5-.23-.5-.5c0-.28.22-.5.5-.5s.5.22.5.5zm0 2c0 .28-.22.5-.5.5s-.5-.22-.5-.5.22-.5.5-.5.5.22.5.5zm0 2c0 .28-.22.5-.5.5s-.5-.22-.5-.5c0-.27.22-.5.5-.5s.5.23.5.5zm0 2c0 .28-.22.5-.5.5s-.5-.22-.5-.5c0-.27.22-.5.5-.5s.5.23.5.5zm0 2c0 .28-.22.5-.5.5s-.5-.22-.5-.5c0-.27.22-.5.5-.5s.5.23.5.5zm0 2c0 .3-.22.5-.5.5s-.5-.2-.5-.5c0-.27.22-.5.5-.5s.5.23.5.5zm0 2c0 .3-.22.5-.5.5s-.5-.2-.5-.5c0-.26.22-.5.5-.5s.5.24.5.5zm0 2.02c0 .27-.22.5-.5.5s-.5-.23-.5-.5c0-.28.22-.5.5-.5s.5.22.5.5zm0 2c0 .27-.22.5-.5.5s-.5-.23-.5-.5c0-.28.22-.5.5-.5s.5.22.5.5zm0 2c0 .28-.22.5-.5.5s-.5-.22-.5-.5.22-.5.5-.5.5.22.5.5zm0 2c0 .28-.22.5-.5.5s-.5-.22-.5-.5c0-.27.22-.5.5-.5s.5.23.5.5zm0 2c0 .28-.22.5-.5.5s-.5-.22-.5-.5c0-.27.22-.5.5-.5s.5.23.5.5zm0 2c0 .28-.22.5-.5.5s-.5-.22-.5-.5c0-.27.22-.5.5-.5s.5.23.5.5zm0 2c0 .3-.22.5-.5.5s-.5-.2-.5-.5c0-.26.22-.5.5-.5s.5.24.5.5zm0 2c0 .3-.22.5-.5.5s-.5-.2-.5-.5c0-.26.22-.5.5-.5s.5.24.5.5zm0 2.02c0 .27-.22.5-.5.5s-.5-.23-.5-.5c0-.28.22-.5.5-.5s.5.22.5.5zm0 2c0 .28-.22.5-.5.5s-.5-.22-.5-.5.22-.5.5-.5.5.22.5.5zm0 2c0 .28-.22.5-.5.5s-.5-.22-.5-.5c0-.27.22-.5.5-.5s.5.23.5.5zm0 2c0 .28-.22.5-.5.5s-.5-.22-.5-.5c0-.27.22-.5.5-.5s.5.23.5.5zm0 2c0 .28-.22.5-.5.5s-.5-.22-.5-.5c0-.27.22-.5.5-.5s.5.23.5.5zm0 2c0 .3-.22.5-.5.5s-.5-.2-.5-.5c0-.27.22-.5.5-.5s.5.23.5.5zm0 2c0 .3-.22.5-.5.5s-.5-.2-.5-.5c0-.26.22-.5.5-.5s.5.24.5.5zm0 2.02c0 .27-.22.5-.5.5s-.5-.23-.5-.5c0-.28.22-.5.5-.5s.5.22.5.5zm0 2c0 .27-.22.5-.5.5s-.5-.23-.5-.5c0-.28.22-.5.5-.5s.5.22.5.5zm0 2c0 .28-.22.5-.5.5s-.5-.22-.5-.5c0-.27.22-.5.5-.5s.5.23.5.5zm0 2c0 .28-.22.5-.5.5s-.5-.22-.5-.5c0-.27.22-.5.5-.5s.5.23.5.5zm0 2c0 .28-.22.5-.5.5s-.5-.22-.5-.5c0-.27.22-.5.5-.5s.5.23.5.5zm0 2c0 .3-.22.5-.5.5s-.5-.2-.5-.5c0-.27.22-.5.5-.5s.5.23.5.5zm0 2c0 .3-.22.5-.5.5s-.5-.2-.5-.5c0-.26.22-.5.5-.5s.5.24.5.5zm0 2c0 .3-.22.5-.5.5s-.5-.2-.5-.5c0-.26.22-.5.5-.5s.5.24.5.5zm0 2.02c0 .27-.22.5-.5.5s-.5-.23-.5-.5c0-.28.22-.5.5-.5s.5.22.5.5zm0 2c0 .28-.22.5-.5.5s-.5-.22-.5-.5.22-.5.5-.5.5.22.5.5zm0 2c0 .28-.22.5-.5.5s-.5-.22-.5-.5c0-.27.22-.5.5-.5s.5.23.5.5zm0 2c0 .28-.22.5-.5.5s-.5-.22-.5-.5c0-.27.22-.5.5-.5s.5.23.5.5zm0 2c0 .28-.22.5-.5.5s-.5-.22-.5-.5c0-.27.22-.5.5-.5s.5.23.5.5zm0 2c0 .3-.22.5-.5.5s-.5-.2-.5-.5c0-.27.22-.5.5-.5s.5.23.5.5zm0 2c0 .3-.22.5-.5.5s-.5-.2-.5-.5c0-.26.22-.5.5-.5s.5.24.5.5zm0 2c0 .3-.22.5-.5.5s-.5-.2-.5-.5c0-.26.22-.5.5-.5s.5.24.5.5zm0 2.02c0 .27-.22.5-.5.5s-.5-.23-.5-.5c0-.28.22-.5.5-.5s.5.22.5.5zm0 2c0 .28-.22.5-.5.5s-.5-.22-.5-.5c0-.27.22-.5.5-.5s.5.23.5.5zm0 2c0 .28-.22.5-.5.5s-.5-.22-.5-.5c0-.27.22-.5.5-.5s.5.23.5.5zm0 2c0 .28-.22.5-.5.5s-.5-.22-.5-.5c0-.27.22-.5.5-.5s.5.23.5.5zm0 2c0 .3-.22.5-.5.5s-.5-.2-.5-.5c0-.27.22-.5.5-.5s.5.23.5.5zm0 2c0 .3-.22.5-.5.5s-.5-.2-.5-.5c0-.26.22-.5.5-.5s.5.24.5.5zm0 2c0 .3-.22.5-.5.5s-.5-.2-.5-.5c0-.26.22-.5.5-.5s.5.24.5.5zm0 2.02c0 .27-.22.5-.5.5s-.5-.23-.5-.5c0-.28.22-.5.5-.5s.5.22.5.5zm0 2c0 .28-.22.5-.5.5s-.5-.22-.5-.5.22-.5.5-.5.5.22.5.5zm0 2c0 .28-.22.5-.5.5s-.5-.22-.5-.5c0-.27.22-.5.5-.5s.5.23.5.5zm0 2c0 .28-.22.5-.5.5s-.5-.22-.5-.5c0-.27.22-.5.5-.5s.5.23.5.5zm0 2c0 .28-.22.5-.5.5s-.5-.22-.5-.5c0-.27.22-.5.5-.5s.5.23.5.5zm0 2c0 .3-.22.5-.5.5s-.5-.2-.5-.5c0-.27.22-.5.5-.5s.5.23.5.5zm0 2c0 .3-.22.5-.5.5s-.5-.2-.5-.5c0-.26.22-.5.5-.5s.5.24.5.5zm0 2.02c0 .27-.22.5-.5.5s-.5-.23-.5-.5c0-.28.22-.5.5-.5s.5.22.5.5zm0 2c0 .27-.22.5-.5.5s-.5-.23-.5-.5c0-.28.22-.5.5-.5s.5.22.5.5zm0 2c0 .28-.22.5-.5.5s-.5-.22-.5-.5.22-.5.5-.5.5.22.5.5zm0 2c0 .28-.22.5-.5.5s-.5-.22-.5-.5c0-.27.22-.5.5-.5s.5.23.5.5zm0 2c0 .28-.22.5-.5.5s-.5-.22-.5-.5c0-.27.22-.5.5-.5s.5.23.5.5zm0 2c0 .28-.22.5-.5.5s-.5-.22-.5-.5c0-.27.22-.5.5-.5s.5.23.5.5zm0 2c0 .3-.22.5-.5.5s-.5-.2-.5-.5c0-.27.22-.5.5-.5s.5.23.5.5zm0 2c0 .3-.22.5-.5.5s-.5-.2-.5-.5c0-.26.22-.5.5-.5s.5.24.5.5zm0 2.02c0 .27-.22.5-.5.5s-.5-.23-.5-.5c0-.28.22-.5.5-.5s.5.22.5.5zm0 2c0 .27-.22.5-.5.5s-.5-.23-.5-.5c0-.28.22-.5.5-.5s.5.22.5.5zm0 2c0 .28-.22.5-.5.5s-.5-.22-.5-.5c0-.27.22-.5.5-.5s.5.23.5.5zm0 2c0 .28-.22.5-.5.5s-.5-.22-.5-.5c0-.27.22-.5.5-.5s.5.23.5.5zm0 2c0 .28-.22.5-.5.5s-.5-.22-.5-.5c0-.27.22-.5.5-.5s.5.23.5.5zm0 2c0 .3-.22.5-.5.5s-.5-.2-.5-.5c0-.27.22-.5.5-.5s.5.23.5.5zm0 2c0 .3-.22.5-.5.5s-.5-.2-.5-.5c0-.26.22-.5.5-.5s.5.24.5.5zm0 2c0 .3-.22.5-.5.5s-.5-.2-.5-.5c0-.26.22-.5.5-.5s.5.24.5.5zm0 2.02c0 .27-.22.5-.5.5s-.5-.23-.5-.5c0-.28.22-.5.5-.5s.5.22.5.5zm0 2c0 .28-.22.5-.5.5s-.5-.22-.5-.5.22-.5.5-.5.5.22.5.5zm0 2c0 .28-.22.5-.5.5s-.5-.22-.5-.5c0-.27.22-.5.5-.5s.5.23.5.5zm0 2c0 .28-.22.5-.5.5s-.5-.22-.5-.5c0-.27.22-.5.5-.5s.5.23.5.5zm0 2c0 .28-.22.5-.5.5s-.5-.22-.5-.5c0-.27.22-.5.5-.5s.5.23.5.5zm0 2c0 .3-.22.5-.5.5s-.5-.2-.5-.5c0-.26.22-.5.5-.5s.5.24.5.5zm0 2c0 .3-.22.5-.5.5s-.5-.2-.5-.5c0-.26.22-.5.5-.5s.5.24.5.5zm0 2.02c0 .27-.22.5-.5.5s-.5-.23-.5-.5c0-.28.22-.5.5-.5s.5.22.5.5zm0 2c0 .28-.22.5-.5.5s-.5-.22-.5-.5.22-.5.5-.5.5.22.5.5zm0 2c0 .28-.22.5-.5.5s-.5-.22-.5-.5c0-.27.22-.5.5-.5s.5.23.5.5zm0 2c0 .28-.22.5-.5.5s-.5-.22-.5-.5c0-.27.22-.5.5-.5s.5.23.5.5zm0 2c0 .28-.22.5-.5.5s-.5-.22-.5-.5c0-.27.22-.5.5-.5s.5.23.5.5zm0 2c0 .3-.22.5-.5.5s-.5-.2-.5-.5c0-.27.22-.5.5-.5s.5.23.5.5zm0 2c0 .3-.22.5-.5.5s-.5-.2-.5-.5c0-.26.22-.5.5-.5s.5.24.5.5zm0 2c0 .3-.22.5-.5.5s-.5-.2-.5-.5c0-.26.22-.5.5-.5s.5.24.5.5zm0 2.02c0 .27-.22.5-.5.5s-.5-.23-.5-.5c0-.28.22-.5.5-.5s.5.22.5.5zm0 2c0 .28-.22.5-.5.5s-.5-.22-.5-.5.22-.5.5-.5.5.22.5.5zm0 2c0 .28-.22.5-.5.5s-.5-.22-.5-.5c0-.27.22-.5.5-.5s.5.23.5.5zm0 2c0 .28-.22.5-.5.5s-.5-.22-.5-.5c0-.27.22-.5.5-.5s.5.23.5.5zm0 2c0 .28-.22.5-.5.5s-.5-.22-.5-.5c0-.27.22-.5.5-.5s.5.23.5.5zm0 2c0 .3-.22.5-.5.5s-.5-.2-.5-.5c0-.26.22-.5.5-.5s.5.24.5.5zm0 2c0 .3-.22.5-.5.5s-.5-.2-.5-.5c0-.26.22-.5.5-.5s.5.24.5.5zm0 2.02c0 .27-.22.5-.5.5s-.5-.23-.5-.5c0-.28.22-.5.5-.5s.5.22.5.5zm0 2c0 .27-.22.5-.5.5s-.5-.23-.5-.5c0-.28.22-.5.5-.5s.5.22.5.5zm0 2c0 .28-.22.5-.5.5s-.5-.22-.5-.5.22-.5.5-.5.5.22.5.5zm0 2c0 .28-.22.5-.5.5s-.5-.22-.5-.5c0-.27.22-.5.5-.5s.5.23.5.5zm0 2c0 .28-.22.5-.5.5s-.5-.22-.5-.5c0-.27.22-.5.5-.5s.5.23.5.5zm0 2c0 .3-.22.5-.5.5s-.5-.2-.5-.5c0-.27.22-.5.5-.5s.5.23.5.5zm0 2c0 .3-.22.5-.5.5s-.5-.2-.5-.5c0-.26.22-.5.5-.5s.5.24.5.5zm0 2c0 .3-.22.5-.5.5s-.5-.2-.5-.5c0-.26.22-.5.5-.5s.5.24.5.5zm0 2.02c0 .27-.22.5-.5.5s-.5-.23-.5-.5c0-.28.22-.5.5-.5s.5.22.5.5zm0 2c0 .28-.22.5-.5.5s-.5-.22-.5-.5.22-.5.5-.5.5.22.5.5zm0 2c0 .28-.22.5-.5.5s-.5-.22-.5-.5c0-.27.22-.5.5-.5s.5.23.5.5zm0 2c0 .28-.22.5-.5.5s-.5-.22-.5-.5c0-.27.22-.5.5-.5s.5.23.5.5zm0 2c0 .28-.22.5-.5.5s-.5-.22-.5-.5c0-.27.22-.5.5-.5s.5.23.5.5zm0 2c0 .3-.22.5-.5.5s-.5-.2-.5-.5c0-.26.22-.5.5-.5s.5.24.5.5zm0 2c0 .3-.22.5-.5.5s-.5-.2-.5-.5c0-.26.22-.5.5-.5s.5.24.5.5zm0 2.02c0 .27-.22.5-.5.5s-.5-.23-.5-.5c0-.28.22-.5.5-.5s.5.22.5.5zm0 2c0 .27-.22.5-.5.5s-.5-.23-.5-.5c0-.28.22-.5.5-.5s.5.22.5.5zm0 2c0 .28-.22.5-.5.5s-.5-.22-.5-.5c0-.27.22-.5.5-.5s.5.23.5.5zm0 2c0 .28-.22.5-.5.5s-.5-.22-.5-.5c0-.27.22-.5.5-.5s.5.23.5.5zm0 2c0 .28-.22.5-.5.5s-.5-.22-.5-.5c0-.27.22-.5.5-.5s.5.23.5.5z" fill="#3a414a"/><path d="M140 120.5v-.5" stroke="#3a414a" fill="none"/><path d="M140 599.02l-7.64-12.9h15.28z" stroke="#3a414a" fill="#3a414a"/><path d="M134 200a6 6 0 0 1 6 6v228a6 6 0 0 1-6 6H86a6 6 0 0 1-6-6V206a6 6 0 0 1 6-6z" stroke="#000" stroke-opacity="0" fill="#fff" fill-opacity="0"/><use xlink:href="#f" transform="matrix(6.123233995736766e-17,1,-1,6.123233995736766e-17,135,205) translate(96.54320987654322 30.27777777777778)"/><path d="M906.34 599.5l1.32-450.33M906.34 599.5v.5" stroke="#3a414a" fill="none"/><path d="M908.14 149.18h-.95v-.5h.94z" stroke="#3a414a" stroke-width=".05" fill="#3a414a"/><path d="M1146.33 599.5V149.17M1146.33 599.5v.5" stroke="#3a414a" fill="none"/><path d="M1146.8 149.18h-.94v-.5h.95z" stroke="#3a414a" stroke-width=".05" fill="#3a414a"/><path d="M907.92 228.1l231.68 46.6M907.93 228.1l-.5-.1" stroke="#3a414a" fill="none"/><path d="M1145.37 275.87l-14.16 4.94 3.02-14.96z" stroke="#3a414a" fill="#3a414a"/><path d="M840 86a6 6 0 0 1 6-6h123.33a6 6 0 0 1 6 6v56.67a6 6 0 0 1-6 6H846a6 6 0 0 1-6-6z" stroke="#000" stroke-opacity="0" fill="#fff" fill-opacity="0"/><use xlink:href="#c" transform="matrix(1,0,0,1,845,85) translate(34.69753086419753 32.52777777777778)"/><path d="M1078.67 86a6 6 0 0 1 6-6H1208a6 6 0 0 1 6 6v56.67a6 6 0 0 1-6 6h-123.33a6 6 0 0 1-6-6z" stroke="#000" stroke-opacity="0" fill="#fff" fill-opacity="0"/><use xlink:href="#d" transform="matrix(1,0,0,1,1083.6666666666279,85) translate(30.345679012345684 32.52777777777778)"/><path d="M920 26a6 6 0 0 1 6-6h228a6 6 0 0 1 6 6v48a6 6 0 0 1-6 6H926a6 6 0 0 1-6-6z" stroke="#000" stroke-opacity="0" fill="#fff" fill-opacity="0"/><use xlink:href="#g" transform="matrix(1,0,0,1,925,25) translate(44.876543209876544 30.27777777777778)"/><path d="M907.85 252.73l231.75 46.6M907.86 252.74l-.5-.1" stroke="#3a414a" fill="none"/><path d="M1145.37 300.5l-14.16 4.94 3.02-14.97z" stroke="#3a414a" fill="#3a414a"/><path d="M907 272.73l231.75 46.6M907.02 272.74l-.5-.1" stroke="#3a414a" fill="none"/><path d="M1144.52 320.5l-14.16 4.94 3-14.97z" stroke="#3a414a" fill="#3a414a"/><path d="M1145.86 276.72l-232.3 77.88M1145.85 276.73l.48-.17" stroke="#3a414a" fill="none"/><path d="M907.98 356.48l9.82-11.35 4.85 14.48z" stroke="#3a414a" fill="#3a414a"/><path d="M1145.86 302.05l-232.37 77.9M1145.85 302.05l.48-.16" stroke="#3a414a" fill="none"/><path d="M907.9 381.8l9.82-11.33 4.86 14.48z" stroke="#3a414a" fill="#3a414a"/><path d="M1145.86 324.7l-232.43 77.9M1145.85 324.7l.48-.15" stroke="#3a414a" fill="none"/><path d="M907.84 404.47l9.82-11.35 4.85 14.48z" stroke="#3a414a" fill="#3a414a"/><path d="M860 646a6 6 0 0 1 6-6h448a6 6 0 0 1 6 6v89.67a6 6 0 0 1-6 6H866a6 6 0 0 1-6-6z" stroke="#000" stroke-opacity="0" fill="#fff" fill-opacity="0"/><use xlink:href="#h" transform="matrix(1,0,0,1,865,645) translate(0 23.52777777777778)"/><use xlink:href="#i" transform="matrix(1,0,0,1,865,645) translate(32.03703703703704 23.52777777777778)"/><use xlink:href="#j" transform="matrix(1,0,0,1,865,645) translate(68.9506172839506 23.52777777777778)"/><use xlink:href="#k" transform="matrix(1,0,0,1,865,645) translate(79.99999999999999 23.52777777777778)"/><use xlink:href="#l" transform="matrix(1,0,0,1,865,645) translate(99.13580246913578 23.52777777777778)"/><use xlink:href="#j" transform="matrix(1,0,0,1,865,645) translate(123.82716049382714 23.52777777777778)"/><use xlink:href="#m" transform="matrix(1,0,0,1,865,645) translate(134.87654320987653 23.52777777777778)"/><use xlink:href="#n" transform="matrix(1,0,0,1,865,645) translate(154.01234567901233 23.52777777777778)"/><use xlink:href="#o" transform="matrix(1,0,0,1,865,645) translate(290.7407407407407 23.52777777777778)"/><use xlink:href="#p" transform="matrix(1,0,0,1,865,645) translate(335.06172839506166 23.52777777777778)"/><use xlink:href="#q" transform="matrix(1,0,0,1,865,645) translate(0 50.19444444444445)"/><use xlink:href="#r" transform="matrix(1,0,0,1,865,645) translate(30.864197530864196 50.19444444444445)"/><use xlink:href="#s" transform="matrix(1,0,0,1,865,645) translate(0 76.86111111111111)"/><path d="M860 784.33a6 6 0 0 1 6-6h448a6 6 0 0 1 6 6V874a6 6 0 0 1-6 6H866a6 6 0 0 1-6-6z" stroke="#000" stroke-opacity="0" fill="#fff" fill-opacity="0"/><g><use xlink:href="#h" transform="matrix(1,0,0,1,865,783.3333333333334) translate(0 23.52777777777778)"/><use xlink:href="#i" transform="matrix(1,0,0,1,865,783.3333333333334) translate(32.03703703703704 23.52777777777778)"/><use xlink:href="#j" transform="matrix(1,0,0,1,865,783.3333333333334) translate(68.9506172839506 23.52777777777778)"/><use xlink:href="#k" transform="matrix(1,0,0,1,865,783.3333333333334) translate(79.99999999999999 23.52777777777778)"/><use xlink:href="#l" transform="matrix(1,0,0,1,865,783.3333333333334) translate(99.13580246913578 23.52777777777778)"/><use xlink:href="#j" transform="matrix(1,0,0,1,865,783.3333333333334) translate(123.82716049382714 23.52777777777778)"/><use xlink:href="#m" transform="matrix(1,0,0,1,865,783.3333333333334) translate(134.87654320987653 23.52777777777778)"/><use xlink:href="#t" transform="matrix(1,0,0,1,865,783.3333333333334) translate(154.01234567901233 23.52777777777778)"/><use xlink:href="#o" transform="matrix(1,0,0,1,865,783.3333333333334) translate(290.7407407407407 23.52777777777778)"/><use xlink:href="#p" transform="matrix(1,0,0,1,865,783.3333333333334) translate(335.06172839506166 23.52777777777778)"/><use xlink:href="#q" transform="matrix(1,0,0,1,865,783.3333333333334) translate(0 50.19444444444445)"/><use xlink:href="#r" transform="matrix(1,0,0,1,865,783.3333333333334) translate(30.864197530864196 50.19444444444445)"/><use xlink:href="#s" transform="matrix(1,0,0,1,865,783.3333333333334) translate(0 76.86111111111111)"/></g><path d="M320 645.17a6 6 0 0 1 6-6h448a6 6 0 0 1 6 6V776.5a6 6 0 0 1-6 6H326a6 6 0 0 1-6-6z" stroke="#000" stroke-opacity="0" fill="#fff" fill-opacity="0"/><g><use xlink:href="#u" transform="matrix(1,0,0,1,325,644.1666666666667) translate(0 21.96527777777778)"/><use xlink:href="#v" transform="matrix(1,0,0,1,325,644.1666666666667) translate(56.60493827160494 21.96527777777778)"/><use xlink:href="#w" transform="matrix(1,0,0,1,325,644.1666666666667) translate(115.67901234567901 21.96527777777778)"/><use xlink:href="#x" transform="matrix(1,0,0,1,325,644.1666666666667) translate(0 48.63194444444444)"/><use xlink:href="#y" transform="matrix(1,0,0,1,325,644.1666666666667) translate(24.691358024691358 48.63194444444444)"/><use xlink:href="#z" transform="matrix(1,0,0,1,325,644.1666666666667) translate(0 75.29861111111111)"/><use xlink:href="#A" transform="matrix(1,0,0,1,325,644.1666666666667) translate(24.691358024691358 75.29861111111111)"/><use xlink:href="#B" transform="matrix(1,0,0,1,325,644.1666666666667) translate(88.76543209876542 75.29861111111111)"/><use xlink:href="#k" transform="matrix(1,0,0,1,325,644.1666666666667) translate(142.96296296296296 75.29861111111111)"/><use xlink:href="#C" transform="matrix(1,0,0,1,325,644.1666666666667) translate(162.09876543209876 75.29861111111111)"/><use xlink:href="#z" transform="matrix(1,0,0,1,325,644.1666666666667) translate(0 101.96527777777777)"/><use xlink:href="#D" transform="matrix(1,0,0,1,325,644.1666666666667) translate(24.691358024691358 101.96527777777777)"/><use xlink:href="#E" transform="matrix(1,0,0,1,325,644.1666666666667) translate(0 128.63194444444446)"/></g><defs><path fill="#333" d="M137-138c1-29-70-34-71-4 15 46 118 7 119 86 1 83-164 76-172 9l43-7c4 19 20 25 44 25 33 8 57-30 24-41C81-84 22-81 20-136c-2-80 154-74 161-7" id="F"/><path fill="#333" d="M185-48c-13 30-37 53-82 52C43 2 14-33 14-96s30-98 90-98c62 0 83 45 84 108H66c0 31 8 55 39 56 18 0 30-7 34-22zm-45-69c5-46-57-63-70-21-2 6-4 13-4 21h74" id="G"/><path fill="#333" d="M135-194c87-1 58 113 63 194h-50c-7-57 23-157-34-157-59 0-34 97-39 157H25l-1-190h47c2 12-1 28 3 38 12-26 28-41 61-42" id="H"/><path fill="#333" d="M88-194c31-1 46 15 58 34l-1-101h50l1 261h-48c-2-10 0-23-3-31C134-8 116 4 84 4 32 4 16-41 15-95c0-56 19-97 73-99zm17 164c33 0 40-30 41-66 1-37-9-64-41-64s-38 30-39 65c0 43 13 65 39 65" id="I"/><g id="a"><use transform="matrix(0.04938271604938272,0,0,0.04938271604938272,0,0)" xlink:href="#F"/><use transform="matrix(0.04938271604938272,0,0,0.04938271604938272,9.876543209876544,0)" xlink:href="#G"/><use transform="matrix(0.04938271604938272,0,0,0.04938271604938272,19.75308641975309,0)" xlink:href="#H"/><use transform="matrix(0.04938271604938272,0,0,0.04938271604938272,30.567901234567906,0)" xlink:href="#I"/><use transform="matrix(0.04938271604938272,0,0,0.04938271604938272,41.38271604938272,0)" xlink:href="#G"/><use transform="matrix(0.04938271604938272,0,0,0.04938271604938272,51.25925925925927,0)" xlink:href="#H"/></g><path fill="#333" d="M220-157c-53 9-28 100-34 157h-49v-107c1-27-5-49-29-50C55-147 81-57 75 0H25l-1-190h47c2 12-1 28 3 38 10-53 101-56 108 0 13-22 24-43 59-42 82 1 51 116 57 194h-49v-107c-1-25-5-48-29-50" id="J"/><path fill="#333" d="M135-194c53 0 70 44 70 98 0 56-19 98-73 100-31 1-45-17-59-34 3 33 2 69 2 105H25l-1-265h48c2 10 0 23 3 31 11-24 29-35 60-35zM114-30c33 0 39-31 40-66 0-38-9-64-40-64-56 0-55 130 0 130" id="K"/><path fill="#333" d="M121-226c-27-7-43 5-38 36h38v33H83V0H34v-157H6v-33h28c-9-59 32-81 87-68v32" id="L"/><path fill="#333" d="M133-34C117-15 103 5 69 4 32 3 11-16 11-54c-1-60 55-63 116-61 1-26-3-47-28-47-18 1-26 9-28 27l-52-2c7-38 36-58 82-57s74 22 75 68l1 82c-1 14 12 18 25 15v27c-30 8-71 5-69-32zm-48 3c29 0 43-24 42-57-32 0-66-3-65 30 0 17 8 27 23 27" id="M"/><path fill="#333" d="M195-6C206 82 75 100 31 46c-4-6-6-13-8-21l49-6c3 16 16 24 34 25 40 0 42-37 40-79-11 22-30 35-61 35-53 0-70-43-70-97 0-56 18-96 73-97 30 0 46 14 59 34l2-30h47zm-90-29c32 0 41-27 41-63 0-35-9-62-40-62-32 0-39 29-40 63 0 36 9 62 39 62" id="N"/><g id="b"><use transform="matrix(0.04938271604938272,0,0,0.04938271604938272,0,0)" xlink:href="#G"/><use transform="matrix(0.04938271604938272,0,0,0.04938271604938272,9.876543209876544,0)" xlink:href="#J"/><use transform="matrix(0.04938271604938272,0,0,0.04938271604938272,25.679012345679016,0)" xlink:href="#K"/><use transform="matrix(0.04938271604938272,0,0,0.04938271604938272,36.49382716049383,0)" xlink:href="#L"/><use transform="matrix(0.04938271604938272,0,0,0.04938271604938272,42.370370370370374,0)" xlink:href="#M"/><use transform="matrix(0.04938271604938272,0,0,0.04938271604938272,52.24691358024692,0)" xlink:href="#H"/><use transform="matrix(0.04938271604938272,0,0,0.04938271604938272,63.061728395061735,0)" xlink:href="#N"/><use transform="matrix(0.04938271604938272,0,0,0.04938271604938272,73.87654320987654,0)" xlink:href="#G"/><use transform="matrix(0.04938271604938272,0,0,0.04938271604938272,83.75308641975309,0)" xlink:href="#H"/></g><path fill="#3a414a" d="M212-179c-10-28-35-45-73-45-59 0-87 40-87 99 0 60 29 101 89 101 43 0 62-24 78-52l27 14C228-24 195 4 139 4 59 4 22-46 18-125c-6-104 99-153 187-111 19 9 31 26 39 46" id="O"/><path fill="#3a414a" d="M24 0v-261h32V0H24" id="P"/><path fill="#3a414a" d="M24-231v-30h32v30H24zM24 0v-190h32V0H24" id="Q"/><path fill="#3a414a" d="M100-194c63 0 86 42 84 106H49c0 40 14 67 53 68 26 1 43-12 49-29l28 8c-11 28-37 45-77 45C44 4 14-33 15-96c1-61 26-98 85-98zm52 81c6-60-76-77-97-28-3 7-6 17-6 28h103" id="R"/><path fill="#3a414a" d="M117-194c89-4 53 116 60 194h-32v-121c0-31-8-49-39-48C34-167 62-67 57 0H25l-1-190h30c1 10-1 24 2 32 11-22 29-35 61-36" id="S"/><path fill="#3a414a" d="M59-47c-2 24 18 29 38 22v24C64 9 27 4 27-40v-127H5v-23h24l9-43h21v43h35v23H59v120" id="T"/><g id="c"><use transform="matrix(0.06172839506172839,0,0,0.06172839506172839,0,0)" xlink:href="#O"/><use transform="matrix(0.06172839506172839,0,0,0.06172839506172839,15.987654320987653,0)" xlink:href="#P"/><use transform="matrix(0.06172839506172839,0,0,0.06172839506172839,20.864197530864196,0)" xlink:href="#Q"/><use transform="matrix(0.06172839506172839,0,0,0.06172839506172839,25.74074074074074,0)" xlink:href="#R"/><use transform="matrix(0.06172839506172839,0,0,0.06172839506172839,38.08641975308642,0)" xlink:href="#S"/><use transform="matrix(0.06172839506172839,0,0,0.06172839506172839,50.432098765432094,0)" xlink:href="#T"/></g><path fill="#3a414a" d="M185-189c-5-48-123-54-124 2 14 75 158 14 163 119 3 78-121 87-175 55-17-10-28-26-33-46l33-7c5 56 141 63 141-1 0-78-155-14-162-118-5-82 145-84 179-34 5 7 8 16 11 25" id="U"/><path fill="#3a414a" d="M114-163C36-179 61-72 57 0H25l-1-190h30c1 12-1 29 2 39 6-27 23-49 58-41v29" id="V"/><path fill="#3a414a" d="M108 0H70L1-190h34L89-25l56-165h34" id="W"/><g id="d"><use transform="matrix(0.06172839506172839,0,0,0.06172839506172839,0,0)" xlink:href="#U"/><use transform="matrix(0.06172839506172839,0,0,0.06172839506172839,14.814814814814813,0)" xlink:href="#R"/><use transform="matrix(0.06172839506172839,0,0,0.06172839506172839,27.160493827160494,0)" xlink:href="#V"/><use transform="matrix(0.06172839506172839,0,0,0.06172839506172839,34.50617283950617,0)" xlink:href="#W"/><use transform="matrix(0.06172839506172839,0,0,0.06172839506172839,45.61728395061728,0)" xlink:href="#R"/><use transform="matrix(0.06172839506172839,0,0,0.06172839506172839,57.962962962962955,0)" xlink:href="#V"/></g><path fill="#3a414a" d="M109-170H84l-4-78h32zm-65 0H19l-4-78h33" id="X"/><path fill="#3a414a" d="M233-177c-1 41-23 64-60 70L243 0h-38l-65-103H63V0H30v-248c88 3 205-21 203 71zM63-129c60-2 137 13 137-47 0-61-80-42-137-45v92" id="Y"/><path fill="#3a414a" d="M100-194c62-1 85 37 85 99 1 63-27 99-86 99S16-35 15-95c0-66 28-99 85-99zM99-20c44 1 53-31 53-75 0-43-8-75-51-75s-53 32-53 75 10 74 51 75" id="Z"/><path fill="#3a414a" d="M84 4C-5 8 30-112 23-190h32v120c0 31 7 50 39 49 72-2 45-101 50-169h31l1 190h-30c-1-10 1-25-2-33-11 22-28 36-60 37" id="aa"/><path fill="#3a414a" d="M85-194c31 0 48 13 60 33l-1-100h32l1 261h-30c-2-10 0-23-3-31C134-8 116 4 85 4 32 4 16-35 15-94c0-66 23-100 70-100zm9 24c-40 0-46 34-46 75 0 40 6 74 45 74 42 0 51-32 51-76 0-42-9-74-50-73" id="ab"/><path fill="#3a414a" d="M115-194c55 1 70 41 70 98S169 2 115 4C84 4 66-9 55-30l1 105H24l-1-265h31l2 30c10-21 28-34 59-34zm-8 174c40 0 45-34 45-75s-6-73-45-74c-42 0-51 32-51 76 0 43 10 73 51 73" id="ac"/><path fill="#3a414a" d="M16-82v-28h88v28H16" id="ad"/><path fill="#3a414a" d="M209 0H11v-25l151-195H24v-28h176v25L50-27h159V0" id="ae"/><g id="e"><use transform="matrix(0.06172839506172839,0,0,0.06172839506172839,0,0)" xlink:href="#X"/><use transform="matrix(0.06172839506172839,0,0,0.06172839506172839,7.8395061728395055,0)" xlink:href="#Y"/><use transform="matrix(0.06172839506172839,0,0,0.06172839506172839,23.827160493827158,0)" xlink:href="#Z"/><use transform="matrix(0.06172839506172839,0,0,0.06172839506172839,36.172839506172835,0)" xlink:href="#aa"/><use transform="matrix(0.06172839506172839,0,0,0.06172839506172839,48.51851851851851,0)" xlink:href="#S"/><use transform="matrix(0.06172839506172839,0,0,0.06172839506172839,60.86419753086419,0)" xlink:href="#ab"/><use transform="matrix(0.06172839506172839,0,0,0.06172839506172839,73.20987654320987,0)" xlink:href="#T"/><use transform="matrix(0.06172839506172839,0,0,0.06172839506172839,79.38271604938271,0)" xlink:href="#V"/><use transform="matrix(0.06172839506172839,0,0,0.06172839506172839,86.72839506172839,0)" xlink:href="#Q"/><use transform="matrix(0.06172839506172839,0,0,0.06172839506172839,91.60493827160494,0)" xlink:href="#ac"/><use transform="matrix(0.06172839506172839,0,0,0.06172839506172839,103.95061728395062,0)" xlink:href="#X"/><use transform="matrix(0.06172839506172839,0,0,0.06172839506172839,111.79012345679013,0)" xlink:href="#ad"/><use transform="matrix(0.06172839506172839,0,0,0.06172839506172839,119.13580246913581,0)" xlink:href="#ae"/><use transform="matrix(0.06172839506172839,0,0,0.06172839506172839,132.65432098765433,0)" xlink:href="#R"/><use transform="matrix(0.06172839506172839,0,0,0.06172839506172839,145,0)" xlink:href="#Q"/><use transform="matrix(0.06172839506172839,0,0,0.06172839506172839,149.87654320987653,0)" xlink:href="#T"/></g><g id="f"><use transform="matrix(0.06172839506172839,0,0,0.06172839506172839,0,0)" xlink:href="#ae"/><use transform="matrix(0.06172839506172839,0,0,0.06172839506172839,13.518518518518517,0)" xlink:href="#R"/><use transform="matrix(0.06172839506172839,0,0,0.06172839506172839,25.864197530864196,0)" xlink:href="#Q"/><use transform="matrix(0.06172839506172839,0,0,0.06172839506172839,30.74074074074074,0)" xlink:href="#T"/></g><path fill="#3a414a" d="M182-130c37 4 62 22 62 59C244 23 116-4 24 0v-248c84 5 203-23 205 63 0 31-19 50-47 55zM76-148c40-3 101 13 101-30 0-44-60-28-101-31v61zm0 110c48-3 116 14 116-37 0-48-69-32-116-35v72" id="af"/><path fill="#3a414a" d="M133-34C117-15 103 5 69 4 32 3 11-16 11-54c-1-60 55-63 116-61 1-26-3-47-28-47-18 1-26 9-28 27l-52-2c7-38 36-58 82-57s74 22 75 68l1 82c-1 14 12 18 25 15v27c-30 8-71 5-69-32zm-48 3c29 0 43-24 42-57-32 0-66-3-65 30 0 17 8 27 23 27" id="ag"/><path fill="#3a414a" d="M115-3C79 11 28 4 28-45v-112H4v-33h27l15-45h31v45h36v33H77v99c-1 23 16 31 38 25v30" id="ah"/><path fill="#3a414a" d="M190-63c-7 42-38 67-86 67-59 0-84-38-90-98-12-110 154-137 174-36l-49 2c-2-19-15-32-35-32-30 0-35 28-38 64-6 74 65 87 74 30" id="ai"/><path fill="#3a414a" d="M114-157C55-157 80-60 75 0H25v-261h50l-1 109c12-26 28-41 61-42 86-1 58 113 63 194h-50c-7-57 23-157-34-157" id="aj"/><path fill="#3a414a" d="M14-72v-43h91v43H14" id="ak"/><path fill="#3a414a" d="M230 0l2-204L168 0h-37L68-204 70 0H24v-248h70l56 185 57-185h69V0h-46" id="al"/><path fill="#3a414a" d="M110-194c64 0 96 36 96 99 0 64-35 99-97 99-61 0-95-36-95-99 0-62 34-99 96-99zm-1 164c35 0 45-28 45-65 0-40-10-65-43-65-34 0-45 26-45 65 0 36 10 65 43 65" id="am"/><path fill="#3a414a" d="M88-194c31-1 46 15 58 34l-1-101h50l1 261h-48c-2-10 0-23-3-31C134-8 116 4 84 4 32 4 16-41 15-95c0-56 19-97 73-99zm17 164c33 0 40-30 41-66 1-37-9-64-41-64s-38 30-39 65c0 43 13 65 39 65" id="an"/><path fill="#3a414a" d="M85 4C-2 5 27-109 22-190h50c7 57-23 150 33 157 60-5 35-97 40-157h50l1 190h-47c-2-12 1-28-3-38-12 25-28 42-61 42" id="ao"/><path fill="#3a414a" d="M137-138c1-29-70-34-71-4 15 46 118 7 119 86 1 83-164 76-172 9l43-7c4 19 20 25 44 25 33 8 57-30 24-41C81-84 22-81 20-136c-2-80 154-74 161-7" id="ap"/><g id="g"><use transform="matrix(0.06172839506172839,0,0,0.06172839506172839,0,0)" xlink:href="#af"/><use transform="matrix(0.06172839506172839,0,0,0.06172839506172839,15.987654320987653,0)" xlink:href="#ag"/><use transform="matrix(0.06172839506172839,0,0,0.06172839506172839,28.333333333333332,0)" xlink:href="#ah"/><use transform="matrix(0.06172839506172839,0,0,0.06172839506172839,35.67901234567901,0)" xlink:href="#ai"/><use transform="matrix(0.06172839506172839,0,0,0.06172839506172839,48.02469135802469,0)" xlink:href="#aj"/><use transform="matrix(0.06172839506172839,0,0,0.06172839506172839,61.54320987654321,0)" xlink:href="#ak"/><use transform="matrix(0.06172839506172839,0,0,0.06172839506172839,68.88888888888889,0)" xlink:href="#al"/><use transform="matrix(0.06172839506172839,0,0,0.06172839506172839,87.34567901234567,0)" xlink:href="#am"/><use transform="matrix(0.06172839506172839,0,0,0.06172839506172839,100.86419753086419,0)" xlink:href="#an"/><use transform="matrix(0.06172839506172839,0,0,0.06172839506172839,114.38271604938271,0)" xlink:href="#ao"/><use transform="matrix(0.06172839506172839,0,0,0.06172839506172839,127.90123456790123,0)" xlink:href="#ap"/></g><path fill="#3a414a" d="M101-234c-31-9-42 10-38 44h38v23H63V0H32v-167H5v-23h27c-7-52 17-82 69-68v24" id="aq"/><g id="h"><use transform="matrix(0.06172839506172839,0,0,0.06172839506172839,0,0)" xlink:href="#aq"/><use transform="matrix(0.06172839506172839,0,0,0.06172839506172839,6.172839506172839,0)" xlink:href="#Z"/><use transform="matrix(0.06172839506172839,0,0,0.06172839506172839,18.51851851851852,0)" xlink:href="#V"/></g><path fill="#3a414a" d="M87 75C49 33 22-17 22-94c0-76 28-126 65-167h31c-38 41-64 92-64 168S80 34 118 75H87" id="ar"/><g id="i"><use transform="matrix(0.06172839506172839,0,0,0.06172839506172839,0,0)" xlink:href="#ar"/><use transform="matrix(0.06172839506172839,0,0,0.06172839506172839,7.345679012345679,0)" xlink:href="#Q"/><use transform="matrix(0.06172839506172839,0,0,0.06172839506172839,12.222222222222221,0)" xlink:href="#S"/><use transform="matrix(0.06172839506172839,0,0,0.06172839506172839,24.5679012345679,0)" xlink:href="#T"/></g><use transform="matrix(0.06172839506172839,0,0,0.06172839506172839,0,0)" xlink:href="#Q" id="j"/><path fill="#3a414a" d="M18-150v-26h174v26H18zm0 90v-26h174v26H18" id="as"/><use transform="matrix(0.06172839506172839,0,0,0.06172839506172839,0,0)" xlink:href="#as" id="k"/><path fill="#3a414a" d="M101-251c68 0 85 55 85 127S166 4 100 4C33 4 14-52 14-124c0-73 17-127 87-127zm-1 229c47 0 54-49 54-102s-4-102-53-102c-51 0-55 48-55 102 0 53 5 102 54 102" id="at"/><path fill="#3a414a" d="M68-36c1 33-1 63-14 82H32c9-13 17-26 17-46H33v-36h35zM33-154v-36h35v36H33" id="au"/><g id="l"><use transform="matrix(0.06172839506172839,0,0,0.06172839506172839,0,0)" xlink:href="#at"/><use transform="matrix(0.06172839506172839,0,0,0.06172839506172839,12.345679012345679,0)" xlink:href="#au"/></g><path fill="#3a414a" d="M18-100v-36l175-74v27L42-118l151 64v27" id="av"/><use transform="matrix(0.06172839506172839,0,0,0.06172839506172839,0,0)" xlink:href="#av" id="m"/><path fill="#3a414a" d="M190 0L58-211 59 0H30v-248h39L202-35l-2-213h31V0h-41" id="aw"/><path fill="#3a414a" d="M232-93c-1 65-40 97-104 97C67 4 28-28 28-90v-158h33c8 89-33 224 67 224 102 0 64-133 71-224h33v155" id="ax"/><path fill="#3a414a" d="M240 0l2-218c-23 76-54 145-80 218h-23L58-218 59 0H30v-248h44l77 211c21-75 51-140 76-211h43V0h-30" id="ay"/><path fill="#3a414a" d="M-5 72V49h209v23H-5" id="az"/><path fill="#3a414a" d="M30 0v-248h187v28H63v79h144v27H63v87h162V0H30" id="aA"/><path fill="#3a414a" d="M30-248c118-7 216 8 213 122C240-48 200 0 122 0H30v-248zM63-27c89 8 146-16 146-99s-60-101-146-95v194" id="aB"/><g id="n"><use transform="matrix(0.06172839506172839,0,0,0.06172839506172839,0,0)" xlink:href="#aw"/><use transform="matrix(0.06172839506172839,0,0,0.06172839506172839,15.987654320987653,0)" xlink:href="#ax"/><use transform="matrix(0.06172839506172839,0,0,0.06172839506172839,31.975308641975307,0)" xlink:href="#ay"/><use transform="matrix(0.06172839506172839,0,0,0.06172839506172839,50.432098765432094,0)" xlink:href="#az"/><use transform="matrix(0.06172839506172839,0,0,0.06172839506172839,62.77777777777777,0)" xlink:href="#U"/><use transform="matrix(0.06172839506172839,0,0,0.06172839506172839,77.59259259259258,0)" xlink:href="#aA"/><use transform="matrix(0.06172839506172839,0,0,0.06172839506172839,92.40740740740739,0)" xlink:href="#aw"/><use transform="matrix(0.06172839506172839,0,0,0.06172839506172839,108.39506172839505,0)" xlink:href="#aB"/><use transform="matrix(0.06172839506172839,0,0,0.06172839506172839,124.38271604938271,0)" xlink:href="#au"/></g><path fill="#3a414a" d="M118-107v75H92v-75H18v-26h74v-75h26v75h74v26h-74" id="aC"/><path fill="#3a414a" d="M33-261c38 41 65 92 65 168S71 34 33 75H2C39 34 66-17 66-93S39-220 2-261h31" id="aD"/><g id="o"><use transform="matrix(0.06172839506172839,0,0,0.06172839506172839,0,0)" xlink:href="#Q"/><use transform="matrix(0.06172839506172839,0,0,0.06172839506172839,4.876543209876543,0)" xlink:href="#aC"/><use transform="matrix(0.06172839506172839,0,0,0.06172839506172839,17.839506172839506,0)" xlink:href="#aC"/><use transform="matrix(0.06172839506172839,0,0,0.06172839506172839,30.80246913580247,0)" xlink:href="#aD"/></g><path fill="#3a414a" d="M39-94c74 12-11 154 75 146v23c-44 4-70-10-70-52C44-23 55-84 6-82v-22c81 4-7-162 84-157h24v23c-82-15-2 131-75 144" id="aE"/><use transform="matrix(0.06172839506172839,0,0,0.06172839506172839,0,0)" xlink:href="#aE" id="p"/><path fill="#3a414a" d="M33 0v-38h34V0H33" id="aF"/><g id="r"><use transform="matrix(0.06172839506172839,0,0,0.06172839506172839,0,0)" xlink:href="#aF"/><use transform="matrix(0.06172839506172839,0,0,0.06172839506172839,6.172839506172839,0)" xlink:href="#aF"/><use transform="matrix(0.06172839506172839,0,0,0.06172839506172839,12.345679012345679,0)" xlink:href="#aF"/></g><path fill="#3a414a" d="M76-40C78 24 84 88 6 75V52C86 64 9-79 80-94c-40-6-34-59-34-106 1-29-11-41-40-38v-23c44-4 70 10 70 52 0 47-12 108 38 105v22c-26 1-39 14-38 42" id="aG"/><use transform="matrix(0.06172839506172839,0,0,0.06172839506172839,0,0)" xlink:href="#aG" id="s"/><path fill="#3a414a" d="M205 0l-28-72H64L36 0H1l101-248h38L239 0h-34zm-38-99l-47-123c-12 45-31 82-46 123h93" id="aH"/><g id="t"><use transform="matrix(0.06172839506172839,0,0,0.06172839506172839,0,0)" xlink:href="#aw"/><use transform="matrix(0.06172839506172839,0,0,0.06172839506172839,15.987654320987653,0)" xlink:href="#ax"/><use transform="matrix(0.06172839506172839,0,0,0.06172839506172839,31.975308641975307,0)" xlink:href="#ay"/><use transform="matrix(0.06172839506172839,0,0,0.06172839506172839,50.432098765432094,0)" xlink:href="#az"/><use transform="matrix(0.06172839506172839,0,0,0.06172839506172839,62.77777777777777,0)" xlink:href="#Y"/><use transform="matrix(0.06172839506172839,0,0,0.06172839506172839,78.76543209876543,0)" xlink:href="#aA"/><use transform="matrix(0.06172839506172839,0,0,0.06172839506172839,93.58024691358024,0)" xlink:href="#aH"/><use transform="matrix(0.06172839506172839,0,0,0.06172839506172839,108.39506172839505,0)" xlink:href="#aB"/><use transform="matrix(0.06172839506172839,0,0,0.06172839506172839,124.38271604938271,0)" xlink:href="#au"/></g><path fill="#3a414a" d="M206 0h-36l-40-164L89 0H53L-1-190h32L70-26l43-164h34l41 164 42-164h31" id="aI"/><path fill="#3a414a" d="M106-169C34-169 62-67 57 0H25v-261h32l-1 103c12-21 28-36 61-36 89 0 53 116 60 194h-32v-121c2-32-8-49-39-48" id="aJ"/><g id="u"><use transform="matrix(0.06172839506172839,0,0,0.06172839506172839,0,0)" xlink:href="#aI"/><use transform="matrix(0.06172839506172839,0,0,0.06172839506172839,15.987654320987653,0)" xlink:href="#aJ"/><use transform="matrix(0.06172839506172839,0,0,0.06172839506172839,28.333333333333332,0)" xlink:href="#Q"/><use transform="matrix(0.06172839506172839,0,0,0.06172839506172839,33.20987654320987,0)" xlink:href="#P"/><use transform="matrix(0.06172839506172839,0,0,0.06172839506172839,38.08641975308642,0)" xlink:href="#R"/></g><g id="v"><use transform="matrix(0.06172839506172839,0,0,0.06172839506172839,0,0)" xlink:href="#ar"/><use transform="matrix(0.06172839506172839,0,0,0.06172839506172839,7.345679012345679,0)" xlink:href="#T"/><use transform="matrix(0.06172839506172839,0,0,0.06172839506172839,13.518518518518519,0)" xlink:href="#V"/><use transform="matrix(0.06172839506172839,0,0,0.06172839506172839,20.864197530864196,0)" xlink:href="#aa"/><use transform="matrix(0.06172839506172839,0,0,0.06172839506172839,33.20987654320987,0)" xlink:href="#R"/><use transform="matrix(0.06172839506172839,0,0,0.06172839506172839,45.55555555555555,0)" xlink:href="#aD"/></g><use transform="matrix(0.06172839506172839,0,0,0.06172839506172839,0,0)" xlink:href="#aE" id="w"/><path fill="#3a414a" d="M135-143c-3-34-86-38-87 0 15 53 115 12 119 90S17 21 10-45l28-5c4 36 97 45 98 0-10-56-113-15-118-90-4-57 82-63 122-42 12 7 21 19 24 35" id="aK"/><path fill="#3a414a" d="M96-169c-40 0-48 33-48 73s9 75 48 75c24 0 41-14 43-38l32 2c-6 37-31 61-74 61-59 0-76-41-82-99-10-93 101-131 147-64 4 7 5 14 7 22l-32 3c-4-21-16-35-41-35" id="aL"/><path fill="#3a414a" d="M143 0L79-87 56-68V0H24v-261h32v163l83-92h37l-77 82L181 0h-38" id="aM"/><path fill="#3a414a" d="M210-169c-67 3-38 105-44 169h-31v-121c0-29-5-50-35-48C34-165 62-65 56 0H25l-1-190h30c1 10-1 24 2 32 10-44 99-50 107 0 11-21 27-35 58-36 85-2 47 119 55 194h-31v-121c0-29-5-49-35-48" id="aN"/><path fill="#3a414a" d="M177-190C167-65 218 103 67 71c-23-6-38-20-44-43l32-5c15 47 100 32 89-28v-30C133-14 115 1 83 1 29 1 15-40 15-95c0-56 16-97 71-98 29-1 48 16 59 35 1-10 0-23 2-32h30zM94-22c36 0 50-32 50-73 0-42-14-75-50-75-39 0-46 34-46 75s6 73 46 73" id="aO"/><g id="y"><use transform="matrix(0.06172839506172839,0,0,0.06172839506172839,0,0)" xlink:href="#aK"/><use transform="matrix(0.06172839506172839,0,0,0.06172839506172839,11.11111111111111,0)" xlink:href="#Z"/><use transform="matrix(0.06172839506172839,0,0,0.06172839506172839,23.45679012345679,0)" xlink:href="#aL"/><use transform="matrix(0.06172839506172839,0,0,0.06172839506172839,34.5679012345679,0)" xlink:href="#aM"/><use transform="matrix(0.06172839506172839,0,0,0.06172839506172839,45.67901234567901,0)" xlink:href="#R"/><use transform="matrix(0.06172839506172839,0,0,0.06172839506172839,58.02469135802469,0)" xlink:href="#T"/><use transform="matrix(0.06172839506172839,0,0,0.06172839506172839,64.19753086419753,0)" xlink:href="#aF"/><use transform="matrix(0.06172839506172839,0,0,0.06172839506172839,70.37037037037037,0)" xlink:href="#aK"/><use transform="matrix(0.06172839506172839,0,0,0.06172839506172839,81.48148148148148,0)" xlink:href="#R"/><use transform="matrix(0.06172839506172839,0,0,0.06172839506172839,93.82716049382717,0)" xlink:href="#S"/><use transform="matrix(0.06172839506172839,0,0,0.06172839506172839,106.17283950617285,0)" xlink:href="#ab"/><use transform="matrix(0.06172839506172839,0,0,0.06172839506172839,118.51851851851853,0)" xlink:href="#ar"/><use transform="matrix(0.06172839506172839,0,0,0.06172839506172839,125.86419753086422,0)" xlink:href="#aN"/><use transform="matrix(0.06172839506172839,0,0,0.06172839506172839,144.32098765432102,0)" xlink:href="#aK"/><use transform="matrix(0.06172839506172839,0,0,0.06172839506172839,155.43209876543213,0)" xlink:href="#aO"/><use transform="matrix(0.06172839506172839,0,0,0.06172839506172839,167.7777777777778,0)" xlink:href="#aD"/><use transform="matrix(0.06172839506172839,0,0,0.06172839506172839,175.12345679012347,0)" xlink:href="#au"/></g><g id="A"><use transform="matrix(0.06172839506172839,0,0,0.06172839506172839,0,0)" xlink:href="#U"/><use transform="matrix(0.06172839506172839,0,0,0.06172839506172839,14.814814814814813,0)" xlink:href="#T"/><use transform="matrix(0.06172839506172839,0,0,0.06172839506172839,20.98765432098765,0)" xlink:href="#V"/><use transform="matrix(0.06172839506172839,0,0,0.06172839506172839,28.33333333333333,0)" xlink:href="#Q"/><use transform="matrix(0.06172839506172839,0,0,0.06172839506172839,33.20987654320987,0)" xlink:href="#S"/><use transform="matrix(0.06172839506172839,0,0,0.06172839506172839,45.55555555555555,0)" xlink:href="#aO"/></g><path fill="#3a414a" d="M179-190L93 31C79 59 56 82 12 73V49c39 6 53-20 64-50L1-190h34L92-34l54-156h33" id="aP"/><g id="B"><use transform="matrix(0.06172839506172839,0,0,0.06172839506172839,0,0)" xlink:href="#V"/><use transform="matrix(0.06172839506172839,0,0,0.06172839506172839,7.345679012345679,0)" xlink:href="#R"/><use transform="matrix(0.06172839506172839,0,0,0.06172839506172839,19.691358024691358,0)" xlink:href="#ac"/><use transform="matrix(0.06172839506172839,0,0,0.06172839506172839,32.03703703703704,0)" xlink:href="#P"/><use transform="matrix(0.06172839506172839,0,0,0.06172839506172839,36.91358024691358,0)" xlink:href="#aP"/></g><g id="C"><use transform="matrix(0.06172839506172839,0,0,0.06172839506172839,0,0)" xlink:href="#aK"/><use transform="matrix(0.06172839506172839,0,0,0.06172839506172839,11.11111111111111,0)" xlink:href="#Z"/><use transform="matrix(0.06172839506172839,0,0,0.06172839506172839,23.45679012345679,0)" xlink:href="#aL"/><use transform="matrix(0.06172839506172839,0,0,0.06172839506172839,34.5679012345679,0)" xlink:href="#aM"/><use transform="matrix(0.06172839506172839,0,0,0.06172839506172839,45.67901234567901,0)" xlink:href="#R"/><use transform="matrix(0.06172839506172839,0,0,0.06172839506172839,58.02469135802469,0)" xlink:href="#T"/><use transform="matrix(0.06172839506172839,0,0,0.06172839506172839,64.19753086419753,0)" xlink:href="#aF"/><use transform="matrix(0.06172839506172839,0,0,0.06172839506172839,70.37037037037037,0)" xlink:href="#V"/><use transform="matrix(0.06172839506172839,0,0,0.06172839506172839,77.71604938271605,0)" xlink:href="#R"/><use transform="matrix(0.06172839506172839,0,0,0.06172839506172839,90.06172839506173,0)" xlink:href="#aL"/><use transform="matrix(0.06172839506172839,0,0,0.06172839506172839,101.17283950617285,0)" xlink:href="#R"/><use transform="matrix(0.06172839506172839,0,0,0.06172839506172839,113.51851851851853,0)" xlink:href="#Q"/><use transform="matrix(0.06172839506172839,0,0,0.06172839506172839,118.39506172839508,0)" xlink:href="#W"/><use transform="matrix(0.06172839506172839,0,0,0.06172839506172839,129.50617283950618,0)" xlink:href="#R"/><use transform="matrix(0.06172839506172839,0,0,0.06172839506172839,141.85185185185185,0)" xlink:href="#ar"/><use transform="matrix(0.06172839506172839,0,0,0.06172839506172839,149.19753086419752,0)" xlink:href="#aD"/><use transform="matrix(0.06172839506172839,0,0,0.06172839506172839,156.5432098765432,0)" xlink:href="#au"/></g><g id="D"><use transform="matrix(0.06172839506172839,0,0,0.06172839506172839,0,0)" xlink:href="#aF"/><use transform="matrix(0.06172839506172839,0,0,0.06172839506172839,6.172839506172839,0)" xlink:href="#aF"/><use transform="matrix(0.06172839506172839,0,0,0.06172839506172839,12.345679012345679,0)" xlink:href="#aF"/></g><use transform="matrix(0.06172839506172839,0,0,0.06172839506172839,0,0)" xlink:href="#aG" id="E"/></defs></g></svg>