<svg xmlns="http://www.w3.org/2000/svg" xmlns:xlink="http://www.w3.org/1999/xlink" xmlns:lucid="lucid" width="940" height="707.94"><g transform="translate(-340 -352.0590542394062)" lucid:page-tab-id="0_0"><path d="M920 366a6 6 0 0 1 6-6h348a6 6 0 0 1 6 6v688a6 6 0 0 1-6 6H926a6 6 0 0 1-6-6zM646.67 446a6 6 0 0 1 6-6H874a6 6 0 0 1 6 6v528a6 6 0 0 1-6 6H652.67a6 6 0 0 1-6-6z" stroke="#000" stroke-opacity="0" fill="#f2f3f5"/><path d="M380 666a6 6 0 0 1 6-6h148a6 6 0 0 1 6 6v48a6 6 0 0 1-6 6H386a6 6 0 0 1-6-6z" stroke="#3a414a" fill="#fff"/><use xlink:href="#a" transform="matrix(1,0,0,1,392,672) translate(19.882716049382715 22.27777777777778)"/><use xlink:href="#b" transform="matrix(1,0,0,1,392,672) translate(103.7716049382716 22.27777777777778)"/><path d="M660 466a6 6 0 0 1 6-6h194.67a6 6 0 0 1 6 6v48a6 6 0 0 1-6 6H666a6 6 0 0 1-6-6z" stroke="#3a414a" fill="#fff"/><use xlink:href="#c" transform="matrix(1,0,0,1,671.9999999999999,472) translate(-7.7901234567900985 22.444444444444443)"/><path d="M380 786a6 6 0 0 1 6-6h148a6 6 0 0 1 6 6v48a6 6 0 0 1-6 6H386a6 6 0 0 1-6-6z" stroke="#3a414a" fill="#fff"/><use xlink:href="#d" transform="matrix(1,0,0,1,392,792) translate(16.796296296296298 22.27777777777778)"/><use xlink:href="#e" transform="matrix(1,0,0,1,392,792) translate(22.969135802469136 22.27777777777778)"/><use xlink:href="#f" transform="matrix(1,0,0,1,392,792) translate(106.85802469135803 22.27777777777778)"/><path d="M380 566a6 6 0 0 1 6-6h148a6 6 0 0 1 6 6v48a6 6 0 0 1-6 6H386a6 6 0 0 1-6-6z" stroke="#3a414a" fill="#fff"/><use xlink:href="#a" transform="matrix(1,0,0,1,392,572) translate(19.882716049382715 22.27777777777778)"/><use xlink:href="#g" transform="matrix(1,0,0,1,392,572) translate(103.7716049382716 22.27777777777778)"/><path d="M800 650c22.1 0 40 17.9 40 40s-17.9 40-40 40h-80c-22.1 0-40-17.9-40-40s17.9-40 40-40z" stroke="#3a414a" fill="#fff"/><use xlink:href="#h" transform="matrix(1,0,0,1,685,655) translate(30.555555555555557 39.65277777777778)"/><use xlink:href="#i" transform="matrix(1,0,0,1,685,655) translate(104.62962962962963 39.65277777777778)"/><path d="M540.96 590.2l149.82 63.77" stroke="#3a414a" fill="none"/><path d="M541.17 589.74l-.4.92-.27-.12v-1.08z" stroke="#3a414a" stroke-width=".05" fill="#3a414a"/><path d="M696.2 656.27l-14.87 1.97 5.98-14.05z" stroke="#3a414a" fill="#3a414a"/><path d="M540.92 809.73l141.6-90.87" stroke="#3a414a" fill="none"/><path d="M541.2 810.14l-.7.45v-1.2l.16-.1z" stroke="#3a414a" stroke-width=".05" fill="#3a414a"/><path d="M687.5 715.68l-6.76 13.4-8.24-12.86z" stroke="#3a414a" fill="#3a414a"/><path d="M541 690h131.63" stroke="#3a414a" fill="none"/><path d="M541 690.5h-.5v-1h.5z" stroke="#3a414a" stroke-width=".05" fill="#3a414a"/><path d="M678.52 690l-12.9 7.64v-15.28z" stroke="#3a414a" fill="#3a414a"/><path d="M340 726a6 6 0 0 1 6-6h228a6 6 0 0 1 6 6v48a6 6 0 0 1-6 6H346a6 6 0 0 1-6-6z" stroke="#000" stroke-opacity="0" fill="#fff" fill-opacity="0"/><use xlink:href="#j" transform="matrix(1,0,0,1,345,725) translate(105.74074074074073 30.27777777777778)"/><path d="M1100 510c22.1 0 40 17.9 40 40s-17.9 40-40 40h-80c-22.1 0-40-17.9-40-40s17.9-40 40-40z" stroke="#3a414a" fill="#fff"/><use xlink:href="#h" transform="matrix(1,0,0,1,985,515) translate(26.23456790123457 39.65277777777778)"/><use xlink:href="#k" transform="matrix(1,0,0,1,985,515) translate(100.30864197530865 39.65277777777778)"/><path d="M1100 650c22.1 0 40 17.9 40 40s-17.9 40-40 40h-80c-22.1 0-40-17.9-40-40s17.9-40 40-40z" stroke="#3a414a" fill="#fff"/><use xlink:href="#h" transform="matrix(1,0,0,1,985,655) translate(26.23456790123457 39.65277777777778)"/><use xlink:href="#l" transform="matrix(1,0,0,1,985,655) translate(100.30864197530865 39.65277777777778)"/><path d="M1100 790c22.1 0 40 17.9 40 40s-17.9 40-40 40h-80c-22.1 0-40-17.9-40-40s17.9-40 40-40z" stroke="#3a414a" fill="#fff"/><use xlink:href="#h" transform="matrix(1,0,0,1,985,795) translate(26.23456790123457 39.65277777777778)"/><use xlink:href="#m" transform="matrix(1,0,0,1,985,795) translate(100.30864197530865 39.65277777777778)"/><path d="M840.85 689.64l133.8-134.76" stroke="#3a414a" fill="none"/><path d="M841.22 690l-.77.76.05-.75-.02-.68.03-.04z" stroke="#3a414a" stroke-width=".05" fill="#3a414a"/><path d="M978.8 550.7l-3.67 14.54-10.84-10.76z" stroke="#3a414a" fill="#3a414a"/><path d="M841 690h131.63" stroke="#3a414a" fill="none"/><path d="M841 690.5h-.53l.03-.5-.02-.5h.53z" stroke="#3a414a" stroke-width=".05" fill="#3a414a"/><path d="M978.52 690l-12.9 7.64v-15.28z" stroke="#3a414a" fill="#3a414a"/><path d="M840.85 690.36l133.8 134.76" stroke="#3a414a" fill="none"/><path d="M841.22 690l-.7.72-.06-.05.04-.66-.03-.74z" stroke="#3a414a" stroke-width=".05" fill="#3a414a"/><path d="M978.8 829.3l-14.5-3.78 10.83-10.76z" stroke="#3a414a" fill="#3a414a"/><path d="M940 736a6 6 0 0 1 6-6h228a6 6 0 0 1 6 6v48a6 6 0 0 1-6 6H946a6 6 0 0 1-6-6z" stroke="#000" stroke-opacity="0" fill="#fff" fill-opacity="0"/><use xlink:href="#j" transform="matrix(1,0,0,1,945,735) translate(105.74074074074073 30.27777777777778)"/><path d="M1060 871l-.12 5.44-.28 4.38m-1.1 9.76l-.36 2.47-1 5.23-1.2 5.1-1.38 4.98-.44 1.35m-3.3 9.25l-1.64 3.87-2.2 4.7-2.44 4.65-2.5 4.33m-5.4 8.2l-.9 1.3-3.48 4.6-3.8 4.58-4.15 4.6-.1.12m-6.97 6.9l-2.4 2.27-5.43 4.67-5.94 4.7-1.3.95m-8.03 5.65l-4.34 2.88-7.9 4.77-4.57 2.52m-8.7 4.54l-5 2.47-10.56 4.7-2.34.92m-9.13 3.62l-.2.08-12.9 4.48-5.53 1.67m-9.4 2.8l-14.88 3.82-4.22.9m-9.6 2.03l-3.26.7-16.1 2.7m-9.72 1.34l-12.7 1.6-6.82.56m-9.8.82l-4.68.4-14.93.6m-9.8.33H777.4m-9.8-.36l-14.88-.63-4.74-.38m-9.8-.83l-8.97-.76-10.54-1.33m-9.75-1.22l-2.74-.35-16.63-2.8m-9.66-1.82l-17-3.6-2.2-.57m-9.5-2.44l-8.03-2.07-10.88-3.28m-9.37-2.92l-14.8-5.14-3.7-1.48m-9.14-3.62l-2.45-.97-13.88-6.17-1.62-.8m-8.8-4.38l-2.14-1.06L555 981.1l-3.68-2.24m-8.35-5.17l-7.45-4.96-8.35-6.06-.3-.24m-7.7-6.12l-6.36-5.5-6.16-5.8-1.93-1.96m-6.73-7.15l-1.98-2.2-4.6-5.54-4.16-5.48-1.5-2.14m-5.4-8.2l-.28-.46-3.1-5.34-2.77-5.32-2.5-5.3-.42-1m-3.6-9.12l-.2-.52-1.73-5.35-1.5-5.38-1.28-5.45-.43-2.25m-1.54-9.7l-.5-4.86-.32-4.93" stroke="#3a414a" stroke-linejoin="round" fill="none"/><path d="M1060.5 871.03l-1-.02v-.5h1z" stroke="#3a414a" stroke-width=".05" fill="#3a414a"/><path d="M460.05 841.48l8.34 12.47-15.26.84z" stroke="#3a414a" fill="#3a414a"/><path d="M1060 509l-.12-5.45-.28-4.4m-1.1-9.77l-.35-2.35-.98-5.15-1.17-5-1.37-4.9-.57-1.75m-3.37-9.24l-1.3-3.06-2.12-4.53-2.34-4.47-2.56-4.43-.65-1.02m-5.5-8.16l-2.98-3.93-3.6-4.35-3.9-4.33-2.3-2.35m-7.1-6.8l-4.52-3.9-5.5-4.36-5.43-3.92m-8.2-5.43l-6.27-3.8-7.96-4.37-2.94-1.45m-8.87-4.25l-6.64-2.95-10.67-4.22-.9-.3m-9.3-3.24l-1.58-.55-13-3.9-4.3-1.1m-9.52-2.45l-.48-.13-15.72-3.33-3.07-.53m-9.7-1.64l-4.42-.74-15.1-1.9m-9.8-1l-13.88-1.15-5.74-.24m-9.83-.4l-5.84-.24h-13.83m-9.84.05l-19.68.84m-9.82.72l-16.22 1.37-3.38.42m-9.76 1.24L724.2 358l-9.04 1.54m-9.7 1.64l-4.32.73-14.97 3.2m-9.6 2.13l-18.7 4.8-.37.1m-9.42 2.86l-9.87 2.96-8.85 3.1m-9.3 3.22h-.02l-16.68 6.6-1.57.7m-9 4l-4.6 2.06-13.1 6.5m-8.66 4.72l-4.45 2.45-11.2 6.8-1.26.82m-8.2 5.45l-.65.44-9.1 6.62-6 4.74m-7.52 6.34l-2.1 1.8-6.66 6.27-5.44 5.55m-6.58 7.3l-4.35 5.26-4.44 5.85-3.15 4.54m-5.26 8.3l-2.45 4.24-2.93 5.6-2.6 5.55-.92 2.18m-3.56 9.17l-1.72 5.25-1.55 5.55-1.3 5.6-.5 2.6m-1.53 9.72l-.5 4.8-.32 5" stroke="#3a414a" stroke-linejoin="round" fill="none"/><path d="M1060.5 509.5h-1v-.5l1-.03z" stroke="#3a414a" stroke-width=".05" fill="#3a414a"/><path d="M460.05 558.52l-6.92-13.3 15.25.82z" stroke="#3a414a" fill="#3a414a"/><path d="M993.33 366a6 6 0 0 1 6-6H1194a6 6 0 0 1 6 6v48a6 6 0 0 1-6 6H999.33a6 6 0 0 1-6-6z" stroke="#000" stroke-opacity="0" fill-opacity="0"/><g><use xlink:href="#n" transform="matrix(1,0,0,1,1005.3333333333333,372) translate(15.080246913580254 22.27777777777778)"/></g><defs><path fill="#3a414a" d="M205 0l-28-72H64L36 0H1l101-248h38L239 0h-34zm-38-99l-47-123c-12 45-31 82-46 123h93" id="o"/><path fill="#3a414a" d="M117-194c89-4 53 116 60 194h-32v-121c0-31-8-49-39-48C34-167 62-67 57 0H25l-1-190h30c1 10-1 24 2 32 11-22 29-35 61-36" id="p"/><path fill="#3a414a" d="M101-234c-31-9-42 10-38 44h38v23H63V0H32v-167H5v-23h27c-7-52 17-82 69-68v24" id="q"/><path fill="#3a414a" d="M114-163C36-179 61-72 57 0H25l-1-190h30c1 12-1 29 2 39 6-27 23-49 58-41v29" id="r"/><path fill="#3a414a" d="M141-36C126-15 110 5 73 4 37 3 15-17 15-53c-1-64 63-63 125-63 3-35-9-54-41-54-24 1-41 7-42 31l-33-3c5-37 33-52 76-52 45 0 72 20 72 64v82c-1 20 7 32 28 27v20c-31 9-61-2-59-35zM48-53c0 20 12 33 32 33 41-3 63-29 60-74-43 2-92-5-92 41" id="s"/><path fill="#3a414a" d="M177-190C167-65 218 103 67 71c-23-6-38-20-44-43l32-5c15 47 100 32 89-28v-30C133-14 115 1 83 1 29 1 15-40 15-95c0-56 16-97 71-98 29-1 48 16 59 35 1-10 0-23 2-32h30zM94-22c36 0 50-32 50-73 0-42-14-75-50-75-39 0-46 34-46 75s6 73 46 73" id="t"/><path fill="#3a414a" d="M100-194c63 0 86 42 84 106H49c0 40 14 67 53 68 26 1 43-12 49-29l28 8c-11 28-37 45-77 45C44 4 14-33 15-96c1-61 26-98 85-98zm52 81c6-60-76-77-97-28-3 7-6 17-6 28h103" id="u"/><g id="a"><use transform="matrix(0.06172839506172839,0,0,0.06172839506172839,0,0)" xlink:href="#o"/><use transform="matrix(0.06172839506172839,0,0,0.06172839506172839,14.814814814814813,0)" xlink:href="#p"/><use transform="matrix(0.06172839506172839,0,0,0.06172839506172839,27.160493827160494,0)" xlink:href="#q"/><use transform="matrix(0.06172839506172839,0,0,0.06172839506172839,33.333333333333336,0)" xlink:href="#r"/><use transform="matrix(0.06172839506172839,0,0,0.06172839506172839,40.67901234567901,0)" xlink:href="#s"/><use transform="matrix(0.06172839506172839,0,0,0.06172839506172839,53.02469135802469,0)" xlink:href="#t"/><use transform="matrix(0.06172839506172839,0,0,0.06172839506172839,65.37037037037037,0)" xlink:href="#u"/></g><path fill="#3a414a" d="M101-251c82-7 93 87 43 132L82-64C71-53 59-42 53-27h129V0H18c2-99 128-94 128-182 0-28-16-43-45-43s-46 15-49 41l-32-3c6-41 34-60 81-64" id="v"/><use transform="matrix(0.06172839506172839,0,0,0.06172839506172839,0,0)" xlink:href="#v" id="b"/><path fill="#3a414a" d="M137 0h-34L2-248h35l83 218 83-218h36" id="w"/><path fill="#3a414a" d="M115-194c53 0 69 39 70 98 0 66-23 100-70 100C84 3 66-7 56-30L54 0H23l1-261h32v101c10-23 28-34 59-34zm-8 174c40 0 45-34 45-75 0-40-5-75-45-74-42 0-51 32-51 76 0 43 10 73 51 73" id="x"/><path fill="#3a414a" d="M24-231v-30h32v30H24zM24 0v-190h32V0H24" id="y"/><path fill="#3a414a" d="M85-194c31 0 48 13 60 33l-1-100h32l1 261h-30c-2-10 0-23-3-31C134-8 116 4 85 4 32 4 16-35 15-94c0-66 23-100 70-100zm9 24c-40 0-46 34-46 75 0 40 6 74 45 74 42 0 51-32 51-76 0-42-9-74-50-73" id="z"/><path fill="#3a414a" d="M84 4C-5 8 30-112 23-190h32v120c0 31 7 50 39 49 72-2 45-101 50-169h31l1 190h-30c-1-10 1-25-2-33-11 22-28 36-60 37" id="A"/><path fill="#3a414a" d="M135-143c-3-34-86-38-87 0 15 53 115 12 119 90S17 21 10-45l28-5c4 36 97 45 98 0-10-56-113-15-118-90-4-57 82-63 122-42 12 7 21 19 24 35" id="B"/><g id="c"><use transform="matrix(0.06172839506172839,0,0,0.06172839506172839,0,0)" xlink:href="#w"/><use transform="matrix(0.06172839506172839,0,0,0.06172839506172839,13.580246913580245,0)" xlink:href="#u"/><use transform="matrix(0.06172839506172839,0,0,0.06172839506172839,25.925925925925924,0)" xlink:href="#r"/><use transform="matrix(0.06172839506172839,0,0,0.06172839506172839,33.2716049382716,0)" xlink:href="#x"/><use transform="matrix(0.06172839506172839,0,0,0.06172839506172839,45.61728395061728,0)" xlink:href="#y"/><use transform="matrix(0.06172839506172839,0,0,0.06172839506172839,50.49382716049382,0)" xlink:href="#p"/><use transform="matrix(0.06172839506172839,0,0,0.06172839506172839,62.8395061728395,0)" xlink:href="#z"/><use transform="matrix(0.06172839506172839,0,0,0.06172839506172839,75.18518518518518,0)" xlink:href="#A"/><use transform="matrix(0.06172839506172839,0,0,0.06172839506172839,87.53086419753086,0)" xlink:href="#p"/><use transform="matrix(0.06172839506172839,0,0,0.06172839506172839,99.87654320987654,0)" xlink:href="#t"/><use transform="matrix(0.06172839506172839,0,0,0.06172839506172839,112.22222222222223,0)" xlink:href="#B"/><use transform="matrix(0.06172839506172839,0,0,0.06172839506172839,123.33333333333334,0)" xlink:href="#s"/><use transform="matrix(0.06172839506172839,0,0,0.06172839506172839,135.679012345679,0)" xlink:href="#p"/><use transform="matrix(0.06172839506172839,0,0,0.06172839506172839,148.02469135802468,0)" xlink:href="#q"/><use transform="matrix(0.06172839506172839,0,0,0.06172839506172839,154.19753086419752,0)" xlink:href="#r"/><use transform="matrix(0.06172839506172839,0,0,0.06172839506172839,161.5432098765432,0)" xlink:href="#s"/><use transform="matrix(0.06172839506172839,0,0,0.06172839506172839,173.88888888888886,0)" xlink:href="#t"/><use transform="matrix(0.06172839506172839,0,0,0.06172839506172839,186.23456790123453,0)" xlink:href="#u"/></g><g id="e"><use transform="matrix(0.06172839506172839,0,0,0.06172839506172839,0,0)" xlink:href="#o"/><use transform="matrix(0.06172839506172839,0,0,0.06172839506172839,14.814814814814813,0)" xlink:href="#p"/><use transform="matrix(0.06172839506172839,0,0,0.06172839506172839,27.160493827160494,0)" xlink:href="#q"/><use transform="matrix(0.06172839506172839,0,0,0.06172839506172839,33.333333333333336,0)" xlink:href="#r"/><use transform="matrix(0.06172839506172839,0,0,0.06172839506172839,40.67901234567901,0)" xlink:href="#s"/><use transform="matrix(0.06172839506172839,0,0,0.06172839506172839,53.02469135802469,0)" xlink:href="#t"/><use transform="matrix(0.06172839506172839,0,0,0.06172839506172839,65.37037037037037,0)" xlink:href="#u"/></g><use transform="matrix(0.06172839506172839,0,0,0.06172839506172839,0,0)" xlink:href="#p" id="f"/><path fill="#3a414a" d="M27 0v-27h64v-190l-56 39v-29l58-41h29v221h61V0H27" id="C"/><use transform="matrix(0.06172839506172839,0,0,0.06172839506172839,0,0)" xlink:href="#C" id="g"/><path fill="#3a414a" d="M185-189c-5-48-123-54-124 2 14 75 158 14 163 119 3 78-121 87-175 55-17-10-28-26-33-46l33-7c5 56 141 63 141-1 0-78-155-14-162-118-5-82 145-84 179-34 5 7 8 16 11 25" id="D"/><path fill="#3a414a" d="M100-194c62-1 85 37 85 99 1 63-27 99-86 99S16-35 15-95c0-66 28-99 85-99zM99-20c44 1 53-31 53-75 0-43-8-75-51-75s-53 32-53 75 10 74 51 75" id="E"/><path fill="#3a414a" d="M96-169c-40 0-48 33-48 73s9 75 48 75c24 0 41-14 43-38l32 2c-6 37-31 61-74 61-59 0-76-41-82-99-10-93 101-131 147-64 4 7 5 14 7 22l-32 3c-4-21-16-35-41-35" id="F"/><path fill="#3a414a" d="M143 0L79-87 56-68V0H24v-261h32v163l83-92h37l-77 82L181 0h-38" id="G"/><path fill="#3a414a" d="M59-47c-2 24 18 29 38 22v24C64 9 27 4 27-40v-127H5v-23h24l9-43h21v43h35v23H59v120" id="H"/><g id="h"><use transform="matrix(0.06172839506172839,0,0,0.06172839506172839,0,0)" xlink:href="#D"/><use transform="matrix(0.06172839506172839,0,0,0.06172839506172839,14.814814814814813,0)" xlink:href="#E"/><use transform="matrix(0.06172839506172839,0,0,0.06172839506172839,27.160493827160494,0)" xlink:href="#F"/><use transform="matrix(0.06172839506172839,0,0,0.06172839506172839,38.27160493827161,0)" xlink:href="#G"/><use transform="matrix(0.06172839506172839,0,0,0.06172839506172839,49.38271604938272,0)" xlink:href="#u"/><use transform="matrix(0.06172839506172839,0,0,0.06172839506172839,61.7283950617284,0)" xlink:href="#H"/></g><use transform="matrix(0.06172839506172839,0,0,0.06172839506172839,0,0)" xlink:href="#o" id="i"/><path fill="#3a414a" d="M33 0v-38h34V0H33" id="I"/><g id="j"><use transform="matrix(0.06172839506172839,0,0,0.06172839506172839,0,0)" xlink:href="#I"/><use transform="matrix(0.06172839506172839,0,0,0.06172839506172839,6.172839506172839,0)" xlink:href="#I"/><use transform="matrix(0.06172839506172839,0,0,0.06172839506172839,12.345679012345679,0)" xlink:href="#I"/></g><g id="k"><use transform="matrix(0.06172839506172839,0,0,0.06172839506172839,0,0)" xlink:href="#o"/><use transform="matrix(0.043209876543209874,0,0,0.043209876543209874,14.814814814814813,3.1111111111111107)" xlink:href="#C"/></g><g id="l"><use transform="matrix(0.06172839506172839,0,0,0.06172839506172839,0,0)" xlink:href="#o"/><use transform="matrix(0.043209876543209874,0,0,0.043209876543209874,14.814814814814813,3.1111111111111107)" xlink:href="#v"/></g><g id="m"><use transform="matrix(0.06172839506172839,0,0,0.06172839506172839,0,0)" xlink:href="#o"/><use transform="matrix(0.043209876543209874,0,0,0.043209876543209874,14.814814814814813,3.1111111111111107)" xlink:href="#p"/></g><path fill="#3a414a" d="M194 0L95-120 63-95V0H30v-248h33v124l119-124h40L117-140 236 0h-42" id="J"/><path fill="#3a414a" d="M210-169c-67 3-38 105-44 169h-31v-121c0-29-5-50-35-48C34-165 62-65 56 0H25l-1-190h30c1 10-1 24 2 32 10-44 99-50 107 0 11-21 27-35 58-36 85-2 47 119 55 194h-31v-121c0-29-5-49-35-48" id="K"/><g id="n"><use transform="matrix(0.06172839506172839,0,0,0.06172839506172839,0,0)" xlink:href="#J"/><use transform="matrix(0.06172839506172839,0,0,0.06172839506172839,14.814814814814813,0)" xlink:href="#E"/><use transform="matrix(0.06172839506172839,0,0,0.06172839506172839,27.160493827160494,0)" xlink:href="#K"/><use transform="matrix(0.06172839506172839,0,0,0.06172839506172839,45.61728395061728,0)" xlink:href="#K"/><use transform="matrix(0.06172839506172839,0,0,0.06172839506172839,64.07407407407406,0)" xlink:href="#A"/><use transform="matrix(0.06172839506172839,0,0,0.06172839506172839,76.41975308641975,0)" xlink:href="#p"/><use transform="matrix(0.06172839506172839,0,0,0.06172839506172839,88.76543209876543,0)" xlink:href="#y"/><use transform="matrix(0.06172839506172839,0,0,0.06172839506172839,93.64197530864197,0)" xlink:href="#G"/><use transform="matrix(0.06172839506172839,0,0,0.06172839506172839,104.75308641975309,0)" xlink:href="#s"/><use transform="matrix(0.06172839506172839,0,0,0.06172839506172839,117.09876543209877,0)" xlink:href="#H"/><use transform="matrix(0.06172839506172839,0,0,0.06172839506172839,123.27160493827161,0)" xlink:href="#y"/><use transform="matrix(0.06172839506172839,0,0,0.06172839506172839,128.14814814814815,0)" xlink:href="#E"/><use transform="matrix(0.06172839506172839,0,0,0.06172839506172839,140.49382716049382,0)" xlink:href="#p"/></g></defs></g></svg>