<svg xmlns="http://www.w3.org/2000/svg" xmlns:xlink="http://www.w3.org/1999/xlink" xmlns:lucid="lucid" width="963.14" height="501"><g transform="translate(-999.4999999959743 760.5000000020676)" lucid:page-tab-id="0_0"><path d="M1000-1000h2000V0H1000z" fill="#fff"/><path d="M1000-754a6 6 0 0 1 6-6h950.14a6 6 0 0 1 6 6v488a6 6 0 0 1-6 6H1006a6 6 0 0 1-6-6z" stroke="#3a414a" fill="#fff"/><path d="M1620-582.36a6 6 0 0 1 6-6h268a6 6 0 0 1 6 6v201.6a6 6 0 0 1-6 6h-268a6 6 0 0 1-6-6z" stroke="#3a414a" fill="#fff"/><path d="M1635.56-567.1a6 6 0 0 1 6-6h205.77a6 6 0 0 1 6 6v155.83a6 6 0 0 1-6 6h-205.77a6 6 0 0 1-6-6zM1277.34-371.24a3.73 3.73 0 0 1-3.34 5.38h-188a3.73 3.73 0 0 1-3.34-5.38l94.68-191.33a2.97 2.97 0 0 1 5.32 0z" stroke="#3a414a" fill="#fff"/><path d="M1246.67-545.15c0 37.2-29.85 67.36-66.67 67.36s-66.67-30.15-66.67-67.35c0-37.2 29.85-67.37 66.67-67.37s66.67 30.16 66.67 67.37z" stroke="#3a414a" fill="#fff"/><path d="M1863.17-440h22.23" stroke="#3a414a" stroke-linejoin="round" fill="none"/><path d="M1863.18-440h-.5M1885.4-440h.5" stroke="#3a414a" fill="none"/><path d="M1863.17-433h22.23" stroke="#3a414a" stroke-linejoin="round" fill="none"/><path d="M1863.18-433h-.5M1885.4-433h.5" stroke="#3a414a" fill="none"/><path d="M1863.17-426.75h22.23" stroke="#3a414a" stroke-linejoin="round" fill="none"/><path d="M1863.18-426.75h-.5M1885.4-426.75h.5" stroke="#3a414a" fill="none"/><path d="M1863.17-420h22.23" stroke="#3a414a" stroke-linejoin="round" fill="none"/><path d="M1863.18-420h-.5M1885.4-420h.5" stroke="#3a414a" fill="none"/><path d="M1863.17-413h22.23" stroke="#3a414a" stroke-linejoin="round" fill="none"/><path d="M1863.18-413h-.5M1885.4-413h.5" stroke="#3a414a" fill="none"/><path d="M1759.2-589.46l-27.73-20.78" stroke="#3a414a" stroke-width="2" fill="none"/><path d="M1761.67-588.86h-2.95l1.06-1.42zM1732.1-611.03l-1.2 1.6-.92-.68 1.38-1.48z" stroke="#3a414a" stroke-width=".05" fill="#3a414a"/><path d="M1760.7-589.57l42.7-42.98" stroke="#3a414a" stroke-width="2" fill="none"/><path d="M1761.43-588.9l-.02.04h-2.8l1.4-1.44zM1803.2-633.5l2.02.53-1.13 1.15-1.43-1.4.4-.4z" stroke="#3a414a" stroke-width=".05" fill="#3a414a"/><path d="M1862-562.37a6 6 0 0 1 6-6h13.42a6 6 0 0 1 6 6v48a6 6 0 0 1-6 6H1868a6 6 0 0 1-6-6z" stroke="#3a414a" fill="#f2f3f5"/><path d="M1873-555.13c0 1.5-1.27 2.72-2.85 2.72s-2.86-1.23-2.86-2.73 1.27-2.72 2.85-2.72 2.86 1.22 2.86 2.72zM1882.14-555.13c0 1.5-1.28 2.72-2.86 2.72-1.58 0-2.87-1.23-2.87-2.73s1.3-2.72 2.88-2.72c1.58 0 2.86 1.22 2.86 2.72zM1873-544.1c0 1.5-1.27 2.72-2.85 2.72s-2.86-1.2-2.86-2.7c0-1.5 1.27-2.73 2.85-2.73s2.86 1.2 2.86 2.7zM1882.14-544.1c0 1.5-1.28 2.72-2.86 2.72-1.58 0-2.87-1.2-2.87-2.7 0-1.5 1.3-2.73 2.88-2.73 1.58 0 2.86 1.2 2.86 2.7zM1873-533.06c0 1.5-1.27 2.72-2.85 2.72s-2.86-1.22-2.86-2.72c0-1.5 1.27-2.7 2.85-2.7s2.86 1.2 2.86 2.7zM1882.14-533.06c0 1.5-1.28 2.72-2.86 2.72-1.58 0-2.87-1.22-2.87-2.72 0-1.5 1.3-2.7 2.88-2.7 1.58 0 2.86 1.2 2.86 2.7zM1873-522.02c0 1.5-1.27 2.7-2.85 2.7s-2.86-1.2-2.86-2.7c0-1.5 1.27-2.72 2.85-2.72s2.86 1.22 2.86 2.72z" stroke="#3a414a" fill="#fff"/><path d="M1420-567.1a6 6 0 0 1 6-6h38.5a6 6 0 0 1 6 6v107.17a6 6 0 0 1-6 6H1426a6 6 0 0 1-6-6z" stroke="#3a414a" fill="#f2f3f5"/><path d="M1441.87-546.8c0 2.97-2.54 5.4-5.68 5.4-3.15 0-5.7-2.43-5.7-5.4 0-3 2.55-5.4 5.68-5.4 3.14 0 5.7 2.4 5.7 5.4zM1460-546.8c0 2.97-2.55 5.4-5.68 5.4-3.14 0-5.7-2.43-5.7-5.4 0-3 2.56-5.4 5.7-5.4 3.13 0 5.68 2.4 5.68 5.4zM1441.87-524.9c0 3-2.54 5.4-5.68 5.4-3.15 0-5.7-2.4-5.7-5.4 0-2.97 2.55-5.4 5.68-5.4 3.14 0 5.7 2.43 5.7 5.4zM1460-524.9c0 3-2.55 5.4-5.68 5.4-3.14 0-5.7-2.4-5.7-5.4 0-2.97 2.56-5.4 5.7-5.4 3.13 0 5.68 2.43 5.68 5.4zM1441.87-502.97c0 2.98-2.54 5.4-5.68 5.4-3.15 0-5.7-2.42-5.7-5.4 0-2.98 2.55-5.4 5.68-5.4 3.14 0 5.7 2.42 5.7 5.4zM1460-502.97c0 2.98-2.55 5.4-5.68 5.4-3.14 0-5.7-2.42-5.7-5.4 0-2.98 2.56-5.4 5.7-5.4 3.13 0 5.68 2.42 5.68 5.4zM1441.87-481.05c0 2.98-2.54 5.4-5.68 5.4-3.15 0-5.7-2.42-5.7-5.4 0-2.98 2.55-5.4 5.68-5.4 3.14 0 5.7 2.42 5.7 5.4z" stroke="#3a414a" fill="#fff"/><path d="M1445.26-574.1l.08-3.76.26-4.1.2-1.94m1.5-9.7l.02-.07.88-3.74 1.02-3.68 1.18-3.6 1.33-3.6 1.48-3.53.2-.4m4.5-8.7l.82-1.42 2.22-3.5 2.43-3.5 2.66-3.5 2.92-3.53.4-.44m6.75-7.1l3.42-3.2 4.23-3.66 4.65-3.68 2.75-2m8.1-5.52l6.16-3.73 6.9-3.77 4.08-2.03m8.9-4.13l3.05-1.36 9.3-3.67 5.92-2.06m9.33-3l6.25-1.9 12.3-3.15.38-.08m9.6-2.04l3.4-.72 14.4-2.43 1.53-.2m9.73-1.22l4.04-.5 15.5-1.3m9.8-.44l7.35-.32h12.24m9.8.22l11.57.48 8 .68m9.77.87l14.46 1.83 4.97.84m9.67 1.63l.33.06 14 2.96 4.8 1.24m9.5 2.5l10.58 3.18 8.1 2.8m9.15 3.5l3.47 1.38 8.94 3.98 5.47 2.7m8.65 4.62l1.28.7 6.6 4 5.98 3.97 2.64 1.92m7.77 5.98l4.35 3.76 4.04 3.78 3.67 3.75 2.05 2.28m6.2 7.6l.9 1.18 2.53 3.63 2.3 3.62 2.08 3.6 1.88 3.6.52 1.1m3.8 9.04l.28.77 1.2 3.7 1.04 3.73.28 1.2" stroke="#3a414a" stroke-linejoin="round" fill="none"/><path d="M1445.76-574.1v.5h-1v-.53z" stroke="#3a414a" stroke-width=".05" fill="#3a414a"/><path d="M1874.6-569.84l-15.17-19.88 25.28-3z" stroke="#3a414a" fill="#fff"/><use xlink:href="#a" transform="matrix(1,0,0,1,1601.0044310549085,-728.0193053118428) translate(0 16)"/><path d="M1180-364.86l.06 2.36.17 2.73.28 2.63.38 2.52.46 2.44.56 2.36.64 2.3.72 2.22.8 2.18.9 2.12.98 2.1 1.07 2.03 1.17 2 1.26 2 1.36 1.94 1.45 1.93 1.58 1.9 1.7 1.9 1.84 1.87 1.98 1.86 2.13 1.84 2.3 1.82 2.48 1.8 2.7 1.78 2.9 1.75 3.13 1.73 3.4 1.7 3.68 1.63 4 1.57 4.32 1.5 4.67 1.4 5.06 1.3 5.44 1.16 5.85 1 6.26.78 6.66.57 7.05.3h7.4l7.7-.33 7.97-.67 8.14-1.03 8.25-1.4 8.26-1.75 8.2-2.12 8.08-2.43 7.86-2.74 7.6-3 7.32-3.26 7-3.47 6.64-3.65 6.3-3.8 5.93-3.96 5.6-4.06 5.25-4.17 4.92-4.24 4.6-4.34 4.3-4.4 4.02-4.45 3.74-4.5 3.47-4.6 3.23-4.63 3-4.7 2.75-4.8 2.55-4.84 2.32-4.94 2.1-5.04 1.92-5.13 1.7-5.25 1.5-5.37 1.3-5.5 1.07-5.67.86-5.84.63-6.05.4-6.26.13-6.36" stroke="#3a414a" stroke-linejoin="round" fill="none"/><path d="M1180.5-364.85l-1 .02v-.53h1z" stroke="#3a414a" stroke-width=".05" fill="#3a414a"/><path d="M1445.24-452.45l7.55 12.96-15.28-.1z" stroke="#3a414a" fill="#3a414a"/><path d="M1445.68-453.17l5.6 3.46 5.23 2.94 4.64 2.35 4.14 1.87L1469-441l3.4 1.2 3.1.97 2.86.76 2.67.6 2.5.44 2.33.3 2.2.22 2.12.1h2l1.94-.05 1.86-.14 1.8-.2 1.76-.28 1.7-.35 1.7-.42 1.64-.48 1.64-.55 1.62-.63 1.62-.7 1.6-.8 1.64-.87 1.64-.98 1.66-1.08 1.7-1.2 1.72-1.35 1.77-1.5 1.83-1.7 1.9-1.92 2-2.18 2.1-2.5 2.24-2.9 2.4-3.4 2.62-4.05 2.9-4.94 3.3-6.23 3.98-8.27 5.26-12.26 30.43-79.1 4.5-9.37 3.84-7.2 3.44-5.84 3.13-4.85 2.92-4.1 2.73-3.57 2.6-3.1 2.5-2.73 2.42-2.42 2.35-2.16 2.28-1.94 2.24-1.75 2.2-1.57 2.2-1.43 2.16-1.3 2.17-1.15 2.17-1.06 2.18-.95 2.2-.85 2.24-.75 2.27-.67 2.34-.58 2.38-.48 2.46-.4 1.92-.22" stroke="#3a414a" stroke-linejoin="round" fill="none"/><path d="M1445.43-452.73l-1.13-.7h1.56z" stroke="#3a414a" stroke-width=".05" fill="#3a414a"/><path d="M1651.9-638.13l-11.93 9.1-1.8-15.15z" stroke="#3a414a" fill="#3a414a"/><path d="M1130-654a6 6 0 0 1 6-6h88a6 6 0 0 1 6 6v30.1a6 6 0 0 1-6 6h-88a6 6 0 0 1-6-6z" stroke="#000" stroke-opacity="0" fill="#fff" fill-opacity="0"/><use xlink:href="#b" transform="matrix(1,0,0,1,1135.0000000000005,-655) translate(16.69753086419753 21.90277777777778)"/><path d="M1320-480.45a6 6 0 0 1 6-6h88a6 6 0 0 1 6 6v30.1a6 6 0 0 1-6 6h-88a6 6 0 0 1-6-6z" stroke="#000" stroke-opacity="0" fill="#fff" fill-opacity="0"/><use xlink:href="#c" transform="matrix(1,0,0,1,1325,-481.44900928599907) translate(22.160493827160497 21.90277777777778)"/><path d="M1820-337a6 6 0 0 1 6-6h88a6 6 0 0 1 6 6v30.1a6 6 0 0 1-6 6h-88a6 6 0 0 1-6-6z" stroke="#000" stroke-opacity="0" fill="#fff" fill-opacity="0"/><use xlink:href="#d" transform="matrix(1,0,0,1,1825,-337.9896027708601) translate(12.345679012345684 21.90277777777778)"/><path d="M1652.86-642.25a6 6 0 0 1 6-6h77.5a6 6 0 0 1 6 6v8a6 6 0 0 1-6 6h-77.5a6 6 0 0 1-6-6z" stroke="#000" stroke-opacity="0" fill="#fff" fill-opacity="0"/><use xlink:href="#e" transform="matrix(1,0,0,1,1657.8612737743724,-643.2487663581976) translate(-3.1790123456789985 17.777777777777775)"/><path d="M1759.95-588.36l-1.58 15.55-.8 14.02-.17 12.32.33 10.86.7 9.6 1 8.5 1.23 7.6 1.4 6.76 1.54 6.05 1.63 5.44 1.7 4.9 1.75 4.4 1.8 3.97 1.8 3.6 1.82 3.27 1.83 2.96 1.83 2.7 1.83 2.44 1.8 2.23 1.8 2.03 1.8 1.85 1.8 1.7 1.78 1.52 1.77 1.4 1.76 1.27 1.76 1.15 1.74 1.04 1.74.94 1.73.84 1.73.74 1.72.66 1.72.57 1.73.5 1.73.4 1.73.34 1.74.25 1.74.17 1.77.1 1.76.03 1.78-.05 1.8-.13 1.8-.2 1.82-.3 1.84-.38 1.85-.47 1.9-.56 1.88-.64 1.92-.76 1.93-.87 1.95-.98 1.97-1.1 2-1.22 2-1.36 2.02-1.5 2.03-1.66 2.04-1.8 2.05-1.98 2.04-2.17 2.04-2.35 2.02-2.56 2-2.77 2-3 1.93-3.24 1.88-3.5 1.84-3.75 1.75-4.05 1.66-4.35 1.55-4.66 1.43-5 .03-.1" stroke="#3a414a" stroke-linejoin="round" fill="none"/><path d="M1760.44-588.3l-1-.1.06-.46h1z" stroke="#3a414a" stroke-width=".05" fill="#3a414a"/><path d="M1874.46-506.92l4 14.45-14.73-3.97z" stroke="#3a414a" fill="#3a414a"/><path d="M1812.5-638.96c0 3.46-2.8 6.26-6.25 6.26s-6.25-2.8-6.25-6.26c0-3.45 2.8-6.25 6.25-6.25s6.25 2.8 6.25 6.24zM1732.5-615c0 3.46-2.8 6.26-6.25 6.26s-6.25-2.8-6.25-6.26 2.8-6.26 6.25-6.26 6.25 2.8 6.25 6.26z" stroke="#000" stroke-opacity="0" fill="#3a414a"/><defs><path fill="#333" d="M24-231v-30h32v30H24zM24 0v-190h32V0H24" id="f"/><path fill="#333" d="M210-169c-67 3-38 105-44 169h-31v-121c0-29-5-50-35-48C34-165 62-65 56 0H25l-1-190h30c1 10-1 24 2 32 10-44 99-50 107 0 11-21 27-35 58-36 85-2 47 119 55 194h-31v-121c0-29-5-49-35-48" id="g"/><path fill="#333" d="M115-194c55 1 70 41 70 98S169 2 115 4C84 4 66-9 55-30l1 105H24l-1-265h31l2 30c10-21 28-34 59-34zm-8 174c40 0 45-34 45-75s-6-73-45-74c-42 0-51 32-51 76 0 43 10 73 51 73" id="h"/><path fill="#333" d="M24 0v-261h32V0H24" id="i"/><path fill="#333" d="M100-194c63 0 86 42 84 106H49c0 40 14 67 53 68 26 1 43-12 49-29l28 8c-11 28-37 45-77 45C44 4 14-33 15-96c1-61 26-98 85-98zm52 81c6-60-76-77-97-28-3 7-6 17-6 28h103" id="j"/><path fill="#333" d="M117-194c89-4 53 116 60 194h-32v-121c0-31-8-49-39-48C34-167 62-67 57 0H25l-1-190h30c1 10-1 24 2 32 11-22 29-35 61-36" id="k"/><path fill="#333" d="M59-47c-2 24 18 29 38 22v24C64 9 27 4 27-40v-127H5v-23h24l9-43h21v43h35v23H59v120" id="l"/><path fill="#333" d="M114-163C36-179 61-72 57 0H25l-1-190h30c1 12-1 29 2 39 6-27 23-49 58-41v29" id="m"/><g id="a"><use transform="matrix(0.05555555555555555,0,0,0.05555555555555555,0,0)" xlink:href="#f"/><use transform="matrix(0.05555555555555555,0,0,0.05555555555555555,4.388888888888888,0)" xlink:href="#g"/><use transform="matrix(0.05555555555555555,0,0,0.05555555555555555,21,0)" xlink:href="#h"/><use transform="matrix(0.05555555555555555,0,0,0.05555555555555555,32.111111111111114,0)" xlink:href="#i"/><use transform="matrix(0.05555555555555555,0,0,0.05555555555555555,36.5,0)" xlink:href="#j"/><use transform="matrix(0.05555555555555555,0,0,0.05555555555555555,47.611111111111114,0)" xlink:href="#g"/><use transform="matrix(0.05555555555555555,0,0,0.05555555555555555,64.22222222222223,0)" xlink:href="#j"/><use transform="matrix(0.05555555555555555,0,0,0.05555555555555555,75.33333333333334,0)" xlink:href="#k"/><use transform="matrix(0.05555555555555555,0,0,0.05555555555555555,86.44444444444446,0)" xlink:href="#l"/><use transform="matrix(0.05555555555555555,0,0,0.05555555555555555,92.00000000000001,0)" xlink:href="#f"/><use transform="matrix(0.05555555555555555,0,0,0.05555555555555555,96.3888888888889,0)" xlink:href="#j"/><use transform="matrix(0.05555555555555555,0,0,0.05555555555555555,107.50000000000001,0)" xlink:href="#m"/><use transform="matrix(0.05555555555555555,0,0,0.05555555555555555,114.11111111111113,0)" xlink:href="#l"/></g><path fill="#3a414a" d="M212-179c-10-28-35-45-73-45-59 0-87 40-87 99 0 60 29 101 89 101 43 0 62-24 78-52l27 14C228-24 195 4 139 4 59 4 22-46 18-125c-6-104 99-153 187-111 19 9 31 26 39 46" id="n"/><path fill="#3a414a" d="M24 0v-261h32V0H24" id="o"/><path fill="#3a414a" d="M24-231v-30h32v30H24zM24 0v-190h32V0H24" id="p"/><path fill="#3a414a" d="M100-194c63 0 86 42 84 106H49c0 40 14 67 53 68 26 1 43-12 49-29l28 8c-11 28-37 45-77 45C44 4 14-33 15-96c1-61 26-98 85-98zm52 81c6-60-76-77-97-28-3 7-6 17-6 28h103" id="q"/><path fill="#3a414a" d="M117-194c89-4 53 116 60 194h-32v-121c0-31-8-49-39-48C34-167 62-67 57 0H25l-1-190h30c1 10-1 24 2 32 11-22 29-35 61-36" id="r"/><path fill="#3a414a" d="M59-47c-2 24 18 29 38 22v24C64 9 27 4 27-40v-127H5v-23h24l9-43h21v43h35v23H59v120" id="s"/><g id="b"><use transform="matrix(0.06172839506172839,0,0,0.06172839506172839,0,0)" xlink:href="#n"/><use transform="matrix(0.06172839506172839,0,0,0.06172839506172839,15.987654320987653,0)" xlink:href="#o"/><use transform="matrix(0.06172839506172839,0,0,0.06172839506172839,20.864197530864196,0)" xlink:href="#p"/><use transform="matrix(0.06172839506172839,0,0,0.06172839506172839,25.74074074074074,0)" xlink:href="#q"/><use transform="matrix(0.06172839506172839,0,0,0.06172839506172839,38.08641975308642,0)" xlink:href="#r"/><use transform="matrix(0.06172839506172839,0,0,0.06172839506172839,50.432098765432094,0)" xlink:href="#s"/></g><path fill="#3a414a" d="M194-120c59 52 2 134-86 124-53-6-90-18-98-63l31-7c8 30 29 43 70 43 46 0 84-17 71-62-32-43-135-20-137-98-3-89 178-90 191-16l-30 9c-8-48-127-53-127 5 0 53 81 35 115 65" id="t"/><path fill="#3a414a" d="M51-54c-9 22 5 41 31 30L79-1C43 14 10-4 19-52l22-115H19l5-23h22l19-43h21l-9 43h35l-4 23H73" id="u"/><path fill="#3a414a" d="M67 3c-93-2-31-127-26-193h32L48-50c-3 39 53 32 70 12 30-34 30-101 43-152h32L157 0h-30c1-10 6-24 4-33-14 20-29 37-64 36" id="v"/><path fill="#3a414a" d="M68-162c25-46 127-43 121 31C183-60 169 1 98 4 69 5 53-11 43-31L36 0H5l52-261h31zm88 36c2-27-9-43-34-43-55 0-70 51-70 103 0 29 15 45 43 46 52 0 58-58 61-106" id="w"/><g id="c"><use transform="matrix(0.06172839506172839,0,0,0.06172839506172839,0,0)" xlink:href="#t"/><use transform="matrix(0.06172839506172839,0,0,0.06172839506172839,14.814814814814813,0)" xlink:href="#u"/><use transform="matrix(0.06172839506172839,0,0,0.06172839506172839,20.98765432098765,0)" xlink:href="#v"/><use transform="matrix(0.06172839506172839,0,0,0.06172839506172839,33.33333333333333,0)" xlink:href="#w"/></g><path fill="#3a414a" d="M185-189c-5-48-123-54-124 2 14 75 158 14 163 119 3 78-121 87-175 55-17-10-28-26-33-46l33-7c5 56 141 63 141-1 0-78-155-14-162-118-5-82 145-84 179-34 5 7 8 16 11 25" id="x"/><path fill="#3a414a" d="M114-163C36-179 61-72 57 0H25l-1-190h30c1 12-1 29 2 39 6-27 23-49 58-41v29" id="y"/><path fill="#3a414a" d="M108 0H70L1-190h34L89-25l56-165h34" id="z"/><g id="d"><use transform="matrix(0.06172839506172839,0,0,0.06172839506172839,0,0)" xlink:href="#x"/><use transform="matrix(0.06172839506172839,0,0,0.06172839506172839,14.814814814814813,0)" xlink:href="#q"/><use transform="matrix(0.06172839506172839,0,0,0.06172839506172839,27.160493827160494,0)" xlink:href="#y"/><use transform="matrix(0.06172839506172839,0,0,0.06172839506172839,34.50617283950617,0)" xlink:href="#z"/><use transform="matrix(0.06172839506172839,0,0,0.06172839506172839,45.61728395061728,0)" xlink:href="#q"/><use transform="matrix(0.06172839506172839,0,0,0.06172839506172839,57.962962962962955,0)" xlink:href="#y"/></g><path fill="#3a414a" d="M127 0L80-88 50-66 37 0H6l51-261h31L57-100l99-90h39l-93 82L161 0h-34" id="A"/><path fill="#3a414a" d="M111-194c62-3 86 47 72 106H45c-7 38 6 69 45 68 27-1 43-14 53-32l24 11C152-15 129 4 87 4 38 3 12-23 12-71c0-70 32-119 99-123zm44 81c14-66-71-72-95-28-4 8-8 17-11 28h106" id="B"/><path fill="#3a414a" d="M6 0l50-261h32L37 0H6" id="C"/><path fill="#3a414a" d="M30-147c31-64 166-65 159 27C183-49 158 1 86 4 9 8 1-88 30-147zM88-20c53 0 68-48 68-100 0-31-11-51-44-50-52 1-68 46-68 97 0 32 13 53 44 53" id="D"/><path fill="#3a414a" d="M67-158c22-48 132-52 116 29L158 0h-32l25-140c3-38-53-32-70-12C52-117 51-52 38 0H6l36-190h30" id="E"/><g id="e"><use transform="matrix(0.061728395061728385,0,0,0.061728395061728385,0,0)" xlink:href="#t"/><use transform="matrix(0.061728395061728385,0,0,0.061728395061728385,14.814814814814813,0)" xlink:href="#A"/><use transform="matrix(0.061728395061728385,0,0,0.061728395061728385,25.925925925925924,0)" xlink:href="#B"/><use transform="matrix(0.061728395061728385,0,0,0.061728395061728385,38.2716049382716,0)" xlink:href="#C"/><use transform="matrix(0.061728395061728385,0,0,0.061728395061728385,43.148148148148145,0)" xlink:href="#B"/><use transform="matrix(0.061728395061728385,0,0,0.061728395061728385,55.49382716049382,0)" xlink:href="#u"/><use transform="matrix(0.061728395061728385,0,0,0.061728395061728385,61.66666666666666,0)" xlink:href="#D"/><use transform="matrix(0.061728395061728385,0,0,0.061728395061728385,74.01234567901233,0)" xlink:href="#E"/></g></defs></g></svg>