<svg xmlns="http://www.w3.org/2000/svg" xmlns:xlink="http://www.w3.org/1999/xlink" xmlns:lucid="lucid" width="963.14" height="501"><g transform="translate(-999.4999999959743 760.5000000020676)" lucid:page-tab-id="0_0"><path d="M1000-754a6 6 0 0 1 6-6h950.14a6 6 0 0 1 6 6v488a6 6 0 0 1-6 6H1006a6 6 0 0 1-6-6z" stroke="#3a414a" fill="#fff"/><path d="M1620-582.36a6 6 0 0 1 6-6h268a6 6 0 0 1 6 6v201.6a6 6 0 0 1-6 6h-268a6 6 0 0 1-6-6z" stroke="#3a414a" fill="#fff"/><path d="M1635.56-567.1a6 6 0 0 1 6-6h205.77a6 6 0 0 1 6 6v155.83a6 6 0 0 1-6 6h-205.77a6 6 0 0 1-6-6zM1277.34-371.24a3.73 3.73 0 0 1-3.34 5.38h-188a3.73 3.73 0 0 1-3.34-5.38l94.68-191.33a2.97 2.97 0 0 1 5.32 0z" stroke="#3a414a" fill="#fff"/><path d="M1246.67-545.15c0 37.2-29.85 67.36-66.67 67.36s-66.67-30.15-66.67-67.35c0-37.2 29.85-67.37 66.67-67.37s66.67 30.16 66.67 67.37z" stroke="#3a414a" fill="#fff"/><path d="M1863.17-440h22.23" stroke="#3a414a" stroke-linejoin="round" fill="none"/><path d="M1863.18-440h-.5M1885.4-440h.5" stroke="#3a414a" fill="none"/><path d="M1863.17-433h22.23" stroke="#3a414a" stroke-linejoin="round" fill="none"/><path d="M1863.18-433h-.5M1885.4-433h.5" stroke="#3a414a" fill="none"/><path d="M1863.17-426.75h22.23" stroke="#3a414a" stroke-linejoin="round" fill="none"/><path d="M1863.18-426.75h-.5M1885.4-426.75h.5" stroke="#3a414a" fill="none"/><path d="M1863.17-420h22.23" stroke="#3a414a" stroke-linejoin="round" fill="none"/><path d="M1863.18-420h-.5M1885.4-420h.5" stroke="#3a414a" fill="none"/><path d="M1863.17-413h22.23" stroke="#3a414a" stroke-linejoin="round" fill="none"/><path d="M1863.18-413h-.5M1885.4-413h.5" stroke="#3a414a" fill="none"/><path d="M1758.82-589.8l-37.64-29.28" stroke="#3a414a" stroke-width="3" fill="none"/><path d="M1762.44-588.86h-4.4l1.67-2.13z" stroke="#3a414a" stroke-width=".05" fill="#3a414a"/><path d="M1721.2-619.05l-1.2-.95M1760.92-590.04l38.16-48.78" stroke="#3a414a" stroke-width="3" fill="none"/><path d="M1762.13-589.15l-.23.3h-3.8l1.67-2.15z" stroke="#3a414a" stroke-width=".05" fill="#3a414a"/><path d="M1799.05-638.8l.95-1.2" stroke="#3a414a" stroke-width="3" fill="none"/><path d="M1862-562.37a6 6 0 0 1 6-6h13.42a6 6 0 0 1 6 6v48a6 6 0 0 1-6 6H1868a6 6 0 0 1-6-6z" stroke="#3a414a" fill="#f2f3f5"/><path d="M1873-555.13c0 1.5-1.27 2.72-2.85 2.72s-2.86-1.23-2.86-2.73 1.27-2.72 2.85-2.72 2.86 1.22 2.86 2.72zM1882.14-555.13c0 1.5-1.28 2.72-2.86 2.72-1.58 0-2.87-1.23-2.87-2.73s1.3-2.72 2.88-2.72c1.58 0 2.86 1.22 2.86 2.72zM1873-544.1c0 1.5-1.27 2.72-2.85 2.72s-2.86-1.2-2.86-2.7c0-1.5 1.27-2.73 2.85-2.73s2.86 1.2 2.86 2.7zM1882.14-544.1c0 1.5-1.28 2.72-2.86 2.72-1.58 0-2.87-1.2-2.87-2.7 0-1.5 1.3-2.73 2.88-2.73 1.58 0 2.86 1.2 2.86 2.7zM1873-533.06c0 1.5-1.27 2.72-2.85 2.72s-2.86-1.22-2.86-2.72c0-1.5 1.27-2.7 2.85-2.7s2.86 1.2 2.86 2.7zM1882.14-533.06c0 1.5-1.28 2.72-2.86 2.72-1.58 0-2.87-1.22-2.87-2.72 0-1.5 1.3-2.7 2.88-2.7 1.58 0 2.86 1.2 2.86 2.7zM1873-522.02c0 1.5-1.27 2.7-2.85 2.7s-2.86-1.2-2.86-2.7c0-1.5 1.27-2.72 2.85-2.72s2.86 1.22 2.86 2.72z" stroke="#3a414a" fill="#fff"/><path d="M1420-567.1a6 6 0 0 1 6-6h38.5a6 6 0 0 1 6 6v107.17a6 6 0 0 1-6 6H1426a6 6 0 0 1-6-6z" stroke="#3a414a" fill="#f2f3f5"/><path d="M1441.87-546.8c0 2.97-2.54 5.4-5.68 5.4-3.15 0-5.7-2.43-5.7-5.4 0-3 2.55-5.4 5.68-5.4 3.14 0 5.7 2.4 5.7 5.4zM1460-546.8c0 2.97-2.55 5.4-5.68 5.4-3.14 0-5.7-2.43-5.7-5.4 0-3 2.56-5.4 5.7-5.4 3.13 0 5.68 2.4 5.68 5.4zM1441.87-524.9c0 3-2.54 5.4-5.68 5.4-3.15 0-5.7-2.4-5.7-5.4 0-2.97 2.55-5.4 5.68-5.4 3.14 0 5.7 2.43 5.7 5.4zM1460-524.9c0 3-2.55 5.4-5.68 5.4-3.14 0-5.7-2.4-5.7-5.4 0-2.97 2.56-5.4 5.7-5.4 3.13 0 5.68 2.43 5.68 5.4zM1441.87-502.97c0 2.98-2.54 5.4-5.68 5.4-3.15 0-5.7-2.42-5.7-5.4 0-2.98 2.55-5.4 5.68-5.4 3.14 0 5.7 2.42 5.7 5.4zM1460-502.97c0 2.98-2.55 5.4-5.68 5.4-3.14 0-5.7-2.42-5.7-5.4 0-2.98 2.56-5.4 5.7-5.4 3.13 0 5.68 2.42 5.68 5.4zM1441.87-481.05c0 2.98-2.54 5.4-5.68 5.4-3.15 0-5.7-2.42-5.7-5.4 0-2.98 2.55-5.4 5.68-5.4 3.14 0 5.7 2.42 5.7 5.4z" stroke="#3a414a" fill="#fff"/><path d="M1445.77-574.52c0 .28-.22.5-.5.5s-.5-.22-.5-.5.22-.5.5-.5.5.22.5.5zm.1-4c0 .28-.2.5-.5.5-.27 0-.5-.22-.5-.5 0-.27.23-.5.5-.5.3 0 .5.23.5.5zm.28-3.98c0 .28-.22.5-.5.5-.27 0-.5-.22-.5-.5 0-.27.23-.5.5-.5.28 0 .5.23.5.5zm.44-3.97c0 .28-.23.5-.5.5-.28 0-.5-.22-.5-.5 0-.27.22-.5.5-.5.27 0 .5.23.5.5zm.6-3.95c0 .28-.23.5-.5.5-.28 0-.5-.22-.5-.5 0-.27.22-.5.5-.5.27 0 .5.23.5.5zm.77-3.9c0 .26-.22.5-.5.5-.27 0-.5-.24-.5-.5 0-.3.23-.5.5-.5.28 0 .5.2.5.5zm.95-3.9c0 .28-.22.5-.5.5s-.5-.22-.5-.5c0-.27.22-.5.5-.5s.5.23.5.5zm1.12-3.83c0 .28-.23.5-.5.5-.28 0-.5-.22-.5-.5s.22-.5.5-.5c.27 0 .5.22.5.5zm1.28-3.78c0 .27-.22.5-.5.5s-.5-.23-.5-.5c0-.28.22-.5.5-.5s.5.22.5.5zm1.45-3.72c0 .27-.23.5-.5.5-.28 0-.5-.23-.5-.5 0-.28.22-.5.5-.5.27 0 .5.22.5.5zm1.6-3.66c0 .27-.22.5-.5.5-.27 0-.5-.23-.5-.5 0-.3.23-.5.5-.5.28 0 .5.2.5.5zm1.77-3.6c0 .28-.23.5-.5.5-.28 0-.5-.22-.5-.5 0-.27.22-.5.5-.5.27 0 .5.23.5.5zm1.9-3.5c0 .28-.2.5-.5.5-.26 0-.5-.22-.5-.5s.24-.5.5-.5c.3 0 .5.22.5.5zm2.07-3.42c0 .27-.22.5-.5.5-.27 0-.5-.23-.5-.5 0-.28.23-.5.5-.5.28 0 .5.22.5.5zm2.2-3.34c0 .27-.22.5-.5.5-.27 0-.5-.23-.5-.5 0-.28.23-.5.5-.5.28 0 .5.22.5.5zm2.33-3.25c0 .27-.23.5-.5.5-.28 0-.5-.23-.5-.5 0-.3.22-.5.5-.5.27 0 .5.2.5.5zm2.44-3.17c0 .28-.23.5-.5.5-.28 0-.5-.22-.5-.5s.22-.5.5-.5c.27 0 .5.22.5.5zm2.55-3.07c0 .27-.22.5-.5.5-.27 0-.5-.23-.5-.5 0-.28.23-.5.5-.5.28 0 .5.22.5.5zm2.68-2.97c0 .27-.23.5-.5.5-.28 0-.5-.23-.5-.5 0-.28.22-.5.5-.5.27 0 .5.22.5.5zm2.78-2.88c0 .28-.23.5-.5.5-.28 0-.5-.22-.5-.5 0-.27.22-.5.5-.5.27 0 .5.23.5.5zm2.86-2.78c0 .28-.22.5-.5.5-.27 0-.5-.22-.5-.5 0-.27.23-.5.5-.5.28 0 .5.23.5.5zm2.95-2.7c0 .28-.24.5-.5.5-.3 0-.5-.22-.5-.5 0-.27.2-.5.5-.5.26 0 .5.23.5.5zm3-2.6c0 .27-.2.5-.5.5-.26 0-.5-.23-.5-.5 0-.28.24-.5.5-.5.3 0 .5.22.5.5zm3.13-2.5c0 .28-.22.5-.5.5-.27 0-.5-.22-.5-.5s.23-.5.5-.5c.28 0 .5.22.5.5zm3.17-2.43c0 .3-.22.5-.5.5-.27 0-.5-.2-.5-.5 0-.26.23-.5.5-.5.28 0 .5.24.5.5zm3.24-2.34c0 .28-.23.5-.5.5-.28 0-.5-.22-.5-.5 0-.27.22-.5.5-.5.27 0 .5.23.5.5zm3.3-2.23c0 .28-.22.5-.5.5-.27 0-.5-.22-.5-.5s.23-.5.5-.5c.28 0 .5.22.5.5zm3.35-2.2c0 .28-.24.5-.5.5-.3 0-.5-.22-.5-.5 0-.27.2-.5.5-.5.26 0 .5.23.5.5zm3.4-2.06c0 .27-.22.5-.5.5-.27 0-.5-.23-.5-.5 0-.28.23-.5.5-.5.28 0 .5.22.5.5zm3.45-2.03c0 .28-.23.5-.5.5-.28 0-.5-.22-.5-.5 0-.27.22-.5.5-.5.27 0 .5.23.5.5zm3.5-1.92c0 .28-.23.5-.5.5-.28 0-.5-.22-.5-.5s.22-.5.5-.5c.27 0 .5.22.5.5zm3.52-1.88c0 .28-.22.5-.5.5-.27 0-.5-.22-.5-.5 0-.27.23-.5.5-.5.28 0 .5.23.5.5zm3.58-1.77c0 .28-.22.5-.5.5-.27 0-.5-.22-.5-.5s.23-.5.5-.5c.28 0 .5.22.5.5zm3.6-1.75c0 .28-.23.5-.5.5-.28 0-.5-.22-.5-.5 0-.27.22-.5.5-.5.27 0 .5.23.5.5zm3.65-1.62c0 .28-.23.5-.5.5-.28 0-.5-.22-.5-.5 0-.27.22-.5.5-.5.27 0 .5.23.5.5zm3.65-1.62c0 .27-.23.5-.5.5-.28 0-.5-.23-.5-.5 0-.28.22-.5.5-.5.27 0 .5.22.5.5zm3.7-1.5c0 .3-.22.5-.5.5-.27 0-.5-.2-.5-.5 0-.26.23-.5.5-.5.28 0 .5.24.5.5zm3.72-1.46c0 .28-.22.5-.5.5s-.5-.22-.5-.5c0-.27.22-.5.5-.5s.5.23.5.5zm3.74-1.4c0 .27-.22.5-.5.5-.27 0-.5-.23-.5-.5 0-.28.23-.5.5-.5.28 0 .5.22.5.5zm3.78-1.32c0 .28-.23.5-.5.5-.28 0-.5-.22-.5-.5 0-.27.22-.5.5-.5.27 0 .5.23.5.5zm3.77-1.3c0 .27-.22.5-.5.5-.27 0-.5-.23-.5-.5 0-.3.23-.5.5-.5.28 0 .5.2.5.5zm3.8-1.2c0 .26-.2.5-.5.5-.27 0-.5-.24-.5-.5 0-.3.23-.5.5-.5.3 0 .5.2.5.5zm3.84-1.17c0 .28-.24.5-.5.5-.3 0-.5-.22-.5-.5 0-.27.2-.5.5-.5.26 0 .5.23.5.5zm3.8-1.15c0 .28-.2.5-.5.5-.27 0-.5-.22-.5-.5s.23-.5.5-.5c.3 0 .5.22.5.5zm3.87-1.04c0 .28-.23.5-.5.5-.28 0-.5-.22-.5-.5 0-.27.22-.5.5-.5.27 0 .5.23.5.5zm3.87-1c0 .3-.23.5-.5.5-.28 0-.5-.2-.5-.5 0-.26.22-.5.5-.5.27 0 .5.24.5.5zm3.87-.98c0 .28-.22.5-.5.5-.27 0-.5-.22-.5-.5s.23-.5.5-.5c.28 0 .5.22.5.5zm3.9-.9c0 .27-.23.5-.5.5-.28 0-.5-.23-.5-.5 0-.28.22-.5.5-.5.27 0 .5.22.5.5zm3.9-.83c0 .27-.22.5-.5.5-.27 0-.5-.23-.5-.5 0-.28.23-.5.5-.5.28 0 .5.22.5.5zm3.9-.83c0 .27-.2.5-.5.5-.26 0-.5-.23-.5-.5 0-.28.24-.5.5-.5.3 0 .5.22.5.5zm3.92-.8c0 .27-.22.5-.5.5-.27 0-.5-.23-.5-.5 0-.28.23-.5.5-.5.28 0 .5.22.5.5zm3.94-.67c0 .27-.22.5-.5.5-.27 0-.5-.23-.5-.5 0-.28.23-.5.5-.5.28 0 .5.22.5.5zm3.94-.67c0 .28-.22.5-.5.5-.27 0-.5-.22-.5-.5s.23-.5.5-.5c.28 0 .5.22.5.5zm3.94-.67c0 .27-.22.5-.5.5-.27 0-.5-.23-.5-.5 0-.28.23-.5.5-.5.28 0 .5.22.5.5zm3.95-.6c0 .3-.23.5-.5.5-.28 0-.5-.2-.5-.5 0-.27.22-.5.5-.5.27 0 .5.23.5.5zm3.96-.5c0 .3-.23.5-.5.5-.28 0-.5-.2-.5-.5 0-.27.22-.5.5-.5.27 0 .5.23.5.5zm3.96-.5c0 .3-.22.5-.5.5s-.5-.2-.5-.5c0-.27.22-.5.5-.5s.5.23.5.5zm3.96-.5c0 .3-.22.5-.5.5-.27 0-.5-.2-.5-.5 0-.27.23-.5.5-.5.28 0 .5.23.5.5zm3.98-.4c0 .3-.23.5-.5.5-.28 0-.5-.2-.5-.5 0-.26.22-.5.5-.5.27 0 .5.24.5.5zm3.98-.32c0 .28-.23.5-.5.5-.28 0-.5-.22-.5-.5s.22-.5.5-.5c.27 0 .5.22.5.5zm3.98-.33c0 .27-.23.5-.5.5-.28 0-.5-.23-.5-.5 0-.28.22-.5.5-.5.27 0 .5.22.5.5zm3.98-.34c0 .3-.22.5-.5.5s-.5-.2-.5-.5c0-.26.22-.5.5-.5s.5.24.5.5zm4-.22c0 .27-.24.5-.5.5-.3 0-.5-.23-.5-.5 0-.28.2-.5.5-.5.26 0 .5.22.5.5zm3.98-.17c0 .28-.23.5-.5.5-.28 0-.5-.22-.5-.5 0-.27.22-.5.5-.5.27 0 .5.23.5.5zm4-.16c0 .28-.24.5-.5.5-.3 0-.5-.22-.5-.5 0-.27.2-.5.5-.5.26 0 .5.23.5.5zm3.98-.16c0 .27-.22.5-.5.5s-.5-.23-.5-.5c0-.28.22-.5.5-.5s.5.22.5.5zm4-.1c0 .28-.23.5-.5.5-.28 0-.5-.22-.5-.5s.22-.5.5-.5c.27 0 .5.22.5.5zm4 0c0 .28-.24.5-.5.5-.3 0-.5-.22-.5-.5s.2-.5.5-.5c.26 0 .5.22.5.5zm3.98 0c0 .28-.22.5-.5.5-.27 0-.5-.22-.5-.5s.23-.5.5-.5c.28 0 .5.22.5.5zm4 0c0 .28-.23.5-.5.5-.28 0-.5-.22-.5-.5 0-.27.22-.5.5-.5.27 0 .5.23.5.5zm4 .04c0 .27-.23.5-.5.5-.28 0-.5-.23-.5-.5 0-.28.22-.5.5-.5.27 0 .5.22.5.5zm3.98.16c0 .28-.22.5-.5.5-.27 0-.5-.22-.5-.5 0-.27.23-.5.5-.5.28 0 .5.23.5.5zm4 .17c0 .28-.23.5-.5.5-.28 0-.5-.22-.5-.5 0-.27.22-.5.5-.5.27 0 .5.23.5.5zm4 .17c0 .27-.24.5-.5.5-.3 0-.5-.23-.5-.5 0-.28.2-.5.5-.5.26 0 .5.22.5.5zm3.98.17c0 .26-.23.5-.5.5-.28 0-.5-.24-.5-.5 0-.3.22-.5.5-.5.27 0 .5.2.5.5zm3.98.32c0 .28-.23.5-.5.5-.28 0-.5-.22-.5-.5s.22-.5.5-.5c.27 0 .5.22.5.5zm3.98.34c0 .27-.22.5-.5.5s-.5-.23-.5-.5c0-.28.22-.5.5-.5s.5.22.5.5zm3.98.33c0 .26-.22.5-.5.5s-.5-.24-.5-.5c0-.3.22-.5.5-.5s.5.2.5.5zm3.98.32c0 .28-.22.5-.5.5s-.5-.22-.5-.5c0-.27.22-.5.5-.5s.5.23.5.5zm3.97.48c0 .28-.24.5-.5.5-.3 0-.5-.22-.5-.5 0-.27.2-.5.5-.5.26 0 .5.23.5.5zm3.95.5c0 .28-.23.5-.5.5-.28 0-.5-.22-.5-.5 0-.27.22-.5.5-.5.27 0 .5.23.5.5zm3.96.5c0 .28-.2.5-.5.5-.26 0-.5-.22-.5-.5 0-.27.24-.5.5-.5.3 0 .5.23.5.5zm3.98.5c0 .28-.23.5-.5.5-.28 0-.5-.22-.5-.5 0-.27.22-.5.5-.5.27 0 .5.23.5.5zm3.94.65c0 .28-.23.5-.5.5-.28 0-.5-.22-.5-.5 0-.27.22-.5.5-.5.27 0 .5.23.5.5zm3.94.67c0 .27-.23.5-.5.5-.28 0-.5-.23-.5-.5 0-.28.22-.5.5-.5.27 0 .5.22.5.5zm3.93.66c0 .28-.23.5-.5.5-.28 0-.5-.22-.5-.5 0-.27.22-.5.5-.5.27 0 .5.23.5.5zm3.93.68c0 .28-.22.5-.5.5-.27 0-.5-.22-.5-.5 0-.27.23-.5.5-.5.28 0 .5.23.5.5zm3.9.83c0 .27-.2.5-.5.5-.27 0-.5-.23-.5-.5 0-.28.23-.5.5-.5.3 0 .5.22.5.5zm3.92.82c0 .28-.23.5-.5.5-.28 0-.5-.22-.5-.5 0-.27.22-.5.5-.5.27 0 .5.23.5.5zm3.9.83c0 .28-.22.5-.5.5-.27 0-.5-.22-.5-.5 0-.27.23-.5.5-.5.28 0 .5.23.5.5zm3.9.92c0 .27-.23.5-.5.5-.28 0-.5-.23-.5-.5 0-.28.22-.5.5-.5.27 0 .5.22.5.5zm3.86 1c0 .26-.2.5-.5.5-.26 0-.5-.24-.5-.5 0-.3.24-.5.5-.5.3 0 .5.2.5.5zm3.88.98c0 .28-.22.5-.5.5s-.5-.22-.5-.5c0-.27.22-.5.5-.5s.5.23.5.5zm3.86 1.02c0 .27-.22.5-.5.5-.27 0-.5-.23-.5-.5 0-.28.23-.5.5-.5.28 0 .5.22.5.5zm3.83 1.15c0 .28-.22.5-.5.5s-.5-.22-.5-.5c0-.27.22-.5.5-.5s.5.23.5.5zm3.82 1.16c0 .27-.23.5-.5.5-.28 0-.5-.23-.5-.5 0-.28.22-.5.5-.5.27 0 .5.22.5.5zm3.82 1.16c0 .27-.23.5-.5.5-.28 0-.5-.23-.5-.5 0-.28.22-.5.5-.5.27 0 .5.22.5.5zm3.77 1.3c0 .3-.24.5-.5.5-.3 0-.5-.2-.5-.5 0-.27.2-.5.5-.5.26 0 .5.23.5.5zm3.76 1.32c0 .28-.22.5-.5.5-.27 0-.5-.22-.5-.5 0-.27.23-.5.5-.5.28 0 .5.23.5.5zm3.76 1.34c0 .28-.22.5-.5.5-.27 0-.5-.22-.5-.5 0-.27.23-.5.5-.5.28 0 .5.23.5.5zm3.72 1.47c0 .28-.22.5-.5.5s-.5-.22-.5-.5c0-.27.22-.5.5-.5s.5.23.5.5zm3.7 1.47c0 .28-.2.5-.5.5-.26 0-.5-.22-.5-.5 0-.27.24-.5.5-.5.3 0 .5.23.5.5zm3.7 1.55c0 .27-.23.5-.5.5-.28 0-.5-.23-.5-.5 0-.3.22-.5.5-.5.27 0 .5.2.5.5zm3.64 1.6c0 .3-.22.5-.5.5-.27 0-.5-.2-.5-.5 0-.26.23-.5.5-.5.28 0 .5.24.5.5zm3.65 1.65c0 .27-.22.5-.5.5s-.5-.23-.5-.5c0-.28.22-.5.5-.5s.5.22.5.5zm3.58 1.77c0 .28-.2.5-.5.5-.27 0-.5-.22-.5-.5 0-.27.23-.5.5-.5.3 0 .5.23.5.5zm3.6 1.78c0 .27-.24.5-.5.5-.3 0-.5-.23-.5-.5 0-.28.2-.5.5-.5.26 0 .5.22.5.5zm3.5 1.9c0 .27-.22.5-.5.5-.27 0-.5-.23-.5-.5 0-.28.23-.5.5-.5.28 0 .5.22.5.5zm3.5 1.92c0 .27-.22.5-.5.5-.27 0-.5-.23-.5-.5 0-.28.23-.5.5-.5.28 0 .5.22.5.5zm3.45 2.02c0 .28-.23.5-.5.5-.28 0-.5-.22-.5-.5 0-.27.22-.5.5-.5.27 0 .5.23.5.5zm3.4 2.07c0 .3-.2.5-.5.5-.26 0-.5-.2-.5-.5 0-.26.24-.5.5-.5.3 0 .5.24.5.5zm3.36 2.2c0 .27-.2.5-.5.5-.26 0-.5-.23-.5-.5 0-.28.24-.5.5-.5.3 0 .5.22.5.5zm3.34 2.2c0 .28-.23.5-.5.5-.28 0-.5-.22-.5-.5 0-.27.22-.5.5-.5.27 0 .5.23.5.5zm3.23 2.35c0 .27-.22.5-.5.5-.27 0-.5-.23-.5-.5 0-.28.23-.5.5-.5.28 0 .5.22.5.5zm3.2 2.4c0 .26-.22.5-.5.5-.27 0-.5-.24-.5-.5 0-.3.23-.5.5-.5.28 0 .5.2.5.5zm3.14 2.47c0 .27-.22.5-.5.5-.27 0-.5-.23-.5-.5 0-.28.23-.5.5-.5.28 0 .5.22.5.5zm3.06 2.57c0 .27-.23.5-.5.5-.28 0-.5-.23-.5-.5 0-.28.22-.5.5-.5.27 0 .5.22.5.5zm3 2.64c0 .27-.23.5-.5.5-.3 0-.5-.23-.5-.5 0-.28.2-.5.5-.5.27 0 .5.22.5.5zm2.9 2.73c0 .28-.22.5-.5.5-.27 0-.5-.22-.5-.5 0-.27.23-.5.5-.5.28 0 .5.23.5.5zm2.8 2.84c0 .3-.2.5-.5.5-.27 0-.5-.2-.5-.5 0-.26.23-.5.5-.5.3 0 .5.24.5.5zm2.74 2.93c0 .28-.23.5-.5.5-.28 0-.5-.22-.5-.5 0-.27.22-.5.5-.5.27 0 .5.23.5.5zm2.63 3c0 .28-.22.5-.5.5s-.5-.22-.5-.5c0-.27.22-.5.5-.5s.5.23.5.5zm2.53 3.1c0 .27-.22.5-.5.5s-.5-.23-.5-.5c0-.28.22-.5.5-.5s.5.22.5.5zm2.4 3.18c.02.28-.2.5-.48.5-.28 0-.5-.22-.5-.5 0-.27.22-.5.5-.5.27 0 .5.23.5.5zm2.3 3.3c0 .26-.23.5-.5.5-.28 0-.5-.24-.5-.5 0-.3.22-.5.5-.5.27 0 .5.2.5.5zm2.16 3.35c0 .27-.23.5-.5.5-.28 0-.5-.23-.5-.5 0-.28.22-.5.5-.5.27 0 .5.22.5.5zm2.02 3.44c0 .26-.22.5-.5.5-.27 0-.5-.24-.5-.5 0-.3.23-.5.5-.5.28 0 .5.2.5.5zm1.9 3.5c0 .3-.23.5-.5.5-.3 0-.5-.2-.5-.5 0-.27.2-.5.5-.5.27 0 .5.23.5.5zm1.73 3.6c0 .28-.22.5-.5.5s-.5-.22-.5-.5c0-.27.22-.5.5-.5s.5.23.5.5zm1.6 3.67c0 .28-.24.5-.5.5-.3 0-.5-.22-.5-.5s.2-.5.5-.5c.26 0 .5.22.5.5zm1.42 3.73c0 .27-.24.5-.5.5-.3 0-.5-.23-.5-.5 0-.28.2-.5.5-.5.26 0 .5.22.5.5zm1.26 3.8c0 .26-.23.5-.5.5-.28 0-.5-.24-.5-.5 0-.3.22-.5.5-.5.27 0 .5.2.5.5zm1.1 3.82c0 .28-.22.5-.5.5-.27 0-.5-.22-.5-.5 0-.27.23-.5.5-.5.28 0 .5.23.5.5zm.94 3.9c0 .26-.22.5-.5.5s-.5-.24-.5-.5c0-.3.22-.5.5-.5s.5.2.5.5zm.77 3.9c0 .28-.22.5-.5.5-.27 0-.5-.22-.5-.5 0-.27.23-.5.5-.5.28 0 .5.23.5.5zm.6 3.95c0 .28-.22.5-.5.5-.27 0-.5-.22-.5-.5 0-.27.23-.5.5-.5.28 0 .5.23.5.5zm.44 3.98c0 .27-.2.5-.5.5-.26 0-.5-.23-.5-.5 0-.28.24-.5.5-.5.3 0 .5.22.5.5zm.28 3.98c0 .28-.22.5-.5.5-.27 0-.5-.22-.5-.5 0-.27.23-.5.5-.5.28 0 .5.23.5.5zm.1 4c0 .27-.2.5-.5.5-.26 0-.5-.23-.5-.5 0-.28.24-.5.5-.5.3 0 .5.22.5.5z" fill="#3a414a"/><path d="M1436.5-592.53l8.83 17.94 11.47-16.37M1863.17-586.23l11.47 16.38 8.83-17.94" stroke="#3a414a" fill="none"/><use xlink:href="#a" transform="matrix(1,0,0,1,1601.0044310549085,-728.0193053118428) translate(0 16)"/><path d="M1180-364.86l.03 1m.2 3.97v.13l.2 1.86m.57 3.92l.35 1.8.03.15m.98 3.85l.18.65.4 1.25m1.37 3.73l.66 1.55.13.28m1.76 3.56l.15.3.85 1.43m2.14 3.35l.8 1.15.34.47m2.47 3.1l.23.27 1.1 1.23m2.77 2.86l1.45 1.35m3.03 2.57l1.56 1.24m3.23 2.3l1.66 1.1m3.4 2.07l1.74.96m3.53 1.8l1.1.55.7.3m3.64 1.6l1.85.73m3.72 1.37l1.88.65m3.8 1.16l1.07.32.85.22m3.85 1l.36.08 1.58.33m3.9.84l1.96.33m3.92.66l1.97.25m3.95.5l.28.03 1.7.15m3.96.34l1 .07.98.04m3.97.18l1.98.08m3.98 0h1.98m3.98-.1l1.98-.08m3.97-.2l1.98-.17m3.97-.32l1.35-.1.63-.1m3.94-.5l1.97-.24m3.94-.6l1.96-.33m3.92-.65h.03l1.92-.42m3.9-.82l1.93-.4m3.86-.97l1.92-.5m3.84-1.02l1.9-.57m3.8-1.15l1.45-.43.46-.16m3.75-1.32l1.88-.65m3.72-1.4l1.85-.72m3.7-1.46l.12-.04 1.7-.76m3.63-1.62l1.82-.8m3.56-1.77l1.78-.88m3.52-1.84l1.75-.96m3.48-1.93l1.7-1.03m3.4-2.05l.9-.55.78-.5m3.32-2.2l1.65-1.1m3.22-2.34l1.6-1.17m3.16-2.44l1.57-1.23m3.06-2.54l1.5-1.3m2.97-2.65l1.45-1.36m2.86-2.77l1.4-1.42m2.76-2.86l1.33-1.47m2.62-2.98l1.27-1.54m2.5-3.1l1.2-1.58m2.35-3.2l1.13-1.63m2.22-3.3l1.06-1.68m2.06-3.4l1-1.72m1.9-3.5l.92-1.75m1.73-3.58l.85-1.8m1.56-3.65l.77-1.84m1.4-3.72l.54-1.47.12-.4m1.23-3.77l.34-1.08.23-.82m1.07-3.83l.2-.72.28-1.2m.9-3.87l.1-.43.3-1.52m.74-3.9l.05-.25.25-1.72m.58-3.92l.03-.2.2-1.78m.4-3.95l.03-.3.1-1.7m.26-3.96l.04-.6.03-1.4m.07-3.97l.02-1.14-.03-.85m-.08-3.98l-.03-1" stroke="#3a414a" stroke-linejoin="round" fill="none"/><path d="M1180.5-364.85l-1 .02v-.53h1z" stroke="#3a414a" stroke-width=".05" fill="#3a414a"/><path d="M1455.3-435.16l-10.06-17.3-10.3 17.15" stroke="#3a414a" fill="none"/><path d="M1445.26-452.93l.02 1m.18 4l.07 1.22.1.78m.46 4l.3 1.97m.76 3.94l.46 1.94m1.04 3.87l.17.62.42 1.3m1.3 3.8l.7 1.88m1.56 3.7l.08.2.77 1.62m1.77 3.6l.93 1.78m1.98 3.5l.67 1.15.36.56m2.15 3.4l.1.16 1.05 1.5m2.3 3.27l1.23 1.6m2.46 3.16l1.28 1.53m2.6 3.06l1.34 1.48m2.72 2.95l1.4 1.44m2.82 2.86l1.46 1.37m2.92 2.74l.83.78.67.57m3.04 2.6l1.53 1.32m3.12 2.53l1.57 1.24m3.15 2.47l1.63 1.18m3.24 2.36l1.63 1.2m3.32 2.24l1.66 1.1m3.34 2.22l.8.53.9.54m3.43 2.07l1.7 1.05m3.45 2.07l1.76.97m3.52 1.92l1.75.97m3.54 1.9l1.8.88m3.6 1.78l1.8.9m3.6 1.76l1.83.8m3.67 1.65l1.83.8m3.66 1.64l.27.13 1.6.63m3.72 1.48l1.87.74m3.72 1.47l1.42.56.45.17m3.78 1.32l1.9.65m3.8 1.32l1.88.66m3.83 1.2l1.9.58m3.85 1.17l1.92.58m3.86 1.1l1.94.5m3.9 1l1.93.5m3.9.96l1.95.43m3.93.84l1.96.4m3.93.85l.14.03 1.84.3m3.96.68l1.98.33m3.95.67l.13.03 1.86.23m3.98.5l2 .25m3.98.47l2 .17m4 .33l2 .17m4 .24l2 .08m4 .17l1.18.04h.83m4 0h2m4.02-.1l2-.07m4.02-.18l2-.18m4-.34l.84-.07 1.15-.13m3.98-.5l1.35-.17.64-.1m3.95-.68l1.26-.2.72-.16m3.93-.84l.66-.14 1.3-.33m3.88-1l1.92-.6m3.82-1.22l1.9-.66m3.73-1.46l.28-.1 1.56-.7m3.62-1.7l1.2-.6.58-.32m3.48-1.98l1.36-.82.35-.24m3.3-2.27l.98-.7.62-.5m3.1-2.57l.27-.25 1.2-1.1m2.8-2.87l1.04-1.17.3-.33m2.48-3.14l.07-.1 1.08-1.55m2.1-3.4l.42-.7.55-1.07m1.72-3.6l.62-1.5.14-.37m1.32-3.8l.1-.3.45-1.62m.92-3.9l.36-1.9v-.06m.54-3.98l.17-1.6.03-.4m.2-4v-1" stroke="#3a414a" stroke-linejoin="round" fill="none"/><path d="M1445.76-452.93l-1 .03v-.53h1z" stroke="#3a414a" stroke-width=".05" fill="#3a414a"/><path d="M1768.25-355.1l-8.35-18.18-11.9 16.08" stroke="#3a414a" fill="none"/><path d="M1130-654a6 6 0 0 1 6-6h88a6 6 0 0 1 6 6v30.1a6 6 0 0 1-6 6h-88a6 6 0 0 1-6-6z" stroke="#000" stroke-opacity="0" fill="#fff" fill-opacity="0"/><use xlink:href="#b" transform="matrix(1,0,0,1,1135.0000000000005,-655) translate(16.69753086419753 21.90277777777778)"/><path d="M1320-480.45a6 6 0 0 1 6-6h88a6 6 0 0 1 6 6v30.1a6 6 0 0 1-6 6h-88a6 6 0 0 1-6-6z" stroke="#000" stroke-opacity="0" fill="#fff" fill-opacity="0"/><use xlink:href="#c" transform="matrix(1,0,0,1,1325,-481.44900928599907) translate(22.160493827160497 21.90277777777778)"/><path d="M1820-337a6 6 0 0 1 6-6h88a6 6 0 0 1 6 6v30.1a6 6 0 0 1-6 6h-88a6 6 0 0 1-6-6z" stroke="#000" stroke-opacity="0" fill="#fff" fill-opacity="0"/><use xlink:href="#d" transform="matrix(1,0,0,1,1825,-337.9896027708601) translate(12.345679012345684 21.90277777777778)"/><path d="M1652.86-642.25a6 6 0 0 1 6-6h77.5a6 6 0 0 1 6 6v8a6 6 0 0 1-6 6h-77.5a6 6 0 0 1-6-6z" stroke="#000" stroke-opacity="0" fill="#fff" fill-opacity="0"/><use xlink:href="#e" transform="matrix(1,0,0,1,1657.8612737743724,-643.2487663581976) translate(-3.1790123456789985 17.777777777777775)"/><defs><path fill="#333" d="M24-231v-30h32v30H24zM24 0v-190h32V0H24" id="f"/><path fill="#333" d="M210-169c-67 3-38 105-44 169h-31v-121c0-29-5-50-35-48C34-165 62-65 56 0H25l-1-190h30c1 10-1 24 2 32 10-44 99-50 107 0 11-21 27-35 58-36 85-2 47 119 55 194h-31v-121c0-29-5-49-35-48" id="g"/><path fill="#333" d="M115-194c55 1 70 41 70 98S169 2 115 4C84 4 66-9 55-30l1 105H24l-1-265h31l2 30c10-21 28-34 59-34zm-8 174c40 0 45-34 45-75s-6-73-45-74c-42 0-51 32-51 76 0 43 10 73 51 73" id="h"/><path fill="#333" d="M24 0v-261h32V0H24" id="i"/><path fill="#333" d="M100-194c63 0 86 42 84 106H49c0 40 14 67 53 68 26 1 43-12 49-29l28 8c-11 28-37 45-77 45C44 4 14-33 15-96c1-61 26-98 85-98zm52 81c6-60-76-77-97-28-3 7-6 17-6 28h103" id="j"/><path fill="#333" d="M117-194c89-4 53 116 60 194h-32v-121c0-31-8-49-39-48C34-167 62-67 57 0H25l-1-190h30c1 10-1 24 2 32 11-22 29-35 61-36" id="k"/><path fill="#333" d="M59-47c-2 24 18 29 38 22v24C64 9 27 4 27-40v-127H5v-23h24l9-43h21v43h35v23H59v120" id="l"/><path fill="#333" d="M114-163C36-179 61-72 57 0H25l-1-190h30c1 12-1 29 2 39 6-27 23-49 58-41v29" id="m"/><g id="a"><use transform="matrix(0.05555555555555555,0,0,0.05555555555555555,0,0)" xlink:href="#f"/><use transform="matrix(0.05555555555555555,0,0,0.05555555555555555,4.388888888888888,0)" xlink:href="#g"/><use transform="matrix(0.05555555555555555,0,0,0.05555555555555555,21,0)" xlink:href="#h"/><use transform="matrix(0.05555555555555555,0,0,0.05555555555555555,32.111111111111114,0)" xlink:href="#i"/><use transform="matrix(0.05555555555555555,0,0,0.05555555555555555,36.5,0)" xlink:href="#j"/><use transform="matrix(0.05555555555555555,0,0,0.05555555555555555,47.611111111111114,0)" xlink:href="#g"/><use transform="matrix(0.05555555555555555,0,0,0.05555555555555555,64.22222222222223,0)" xlink:href="#j"/><use transform="matrix(0.05555555555555555,0,0,0.05555555555555555,75.33333333333334,0)" xlink:href="#k"/><use transform="matrix(0.05555555555555555,0,0,0.05555555555555555,86.44444444444446,0)" xlink:href="#l"/><use transform="matrix(0.05555555555555555,0,0,0.05555555555555555,92.00000000000001,0)" xlink:href="#f"/><use transform="matrix(0.05555555555555555,0,0,0.05555555555555555,96.3888888888889,0)" xlink:href="#j"/><use transform="matrix(0.05555555555555555,0,0,0.05555555555555555,107.50000000000001,0)" xlink:href="#m"/><use transform="matrix(0.05555555555555555,0,0,0.05555555555555555,114.11111111111113,0)" xlink:href="#l"/></g><path fill="#3a414a" d="M212-179c-10-28-35-45-73-45-59 0-87 40-87 99 0 60 29 101 89 101 43 0 62-24 78-52l27 14C228-24 195 4 139 4 59 4 22-46 18-125c-6-104 99-153 187-111 19 9 31 26 39 46" id="n"/><path fill="#3a414a" d="M24 0v-261h32V0H24" id="o"/><path fill="#3a414a" d="M24-231v-30h32v30H24zM24 0v-190h32V0H24" id="p"/><path fill="#3a414a" d="M100-194c63 0 86 42 84 106H49c0 40 14 67 53 68 26 1 43-12 49-29l28 8c-11 28-37 45-77 45C44 4 14-33 15-96c1-61 26-98 85-98zm52 81c6-60-76-77-97-28-3 7-6 17-6 28h103" id="q"/><path fill="#3a414a" d="M117-194c89-4 53 116 60 194h-32v-121c0-31-8-49-39-48C34-167 62-67 57 0H25l-1-190h30c1 10-1 24 2 32 11-22 29-35 61-36" id="r"/><path fill="#3a414a" d="M59-47c-2 24 18 29 38 22v24C64 9 27 4 27-40v-127H5v-23h24l9-43h21v43h35v23H59v120" id="s"/><g id="b"><use transform="matrix(0.06172839506172839,0,0,0.06172839506172839,0,0)" xlink:href="#n"/><use transform="matrix(0.06172839506172839,0,0,0.06172839506172839,15.987654320987653,0)" xlink:href="#o"/><use transform="matrix(0.06172839506172839,0,0,0.06172839506172839,20.864197530864196,0)" xlink:href="#p"/><use transform="matrix(0.06172839506172839,0,0,0.06172839506172839,25.74074074074074,0)" xlink:href="#q"/><use transform="matrix(0.06172839506172839,0,0,0.06172839506172839,38.08641975308642,0)" xlink:href="#r"/><use transform="matrix(0.06172839506172839,0,0,0.06172839506172839,50.432098765432094,0)" xlink:href="#s"/></g><path fill="#3a414a" d="M194-120c59 52 2 134-86 124-53-6-90-18-98-63l31-7c8 30 29 43 70 43 46 0 84-17 71-62-32-43-135-20-137-98-3-89 178-90 191-16l-30 9c-8-48-127-53-127 5 0 53 81 35 115 65" id="t"/><path fill="#3a414a" d="M51-54c-9 22 5 41 31 30L79-1C43 14 10-4 19-52l22-115H19l5-23h22l19-43h21l-9 43h35l-4 23H73" id="u"/><path fill="#3a414a" d="M67 3c-93-2-31-127-26-193h32L48-50c-3 39 53 32 70 12 30-34 30-101 43-152h32L157 0h-30c1-10 6-24 4-33-14 20-29 37-64 36" id="v"/><path fill="#3a414a" d="M68-162c25-46 127-43 121 31C183-60 169 1 98 4 69 5 53-11 43-31L36 0H5l52-261h31zm88 36c2-27-9-43-34-43-55 0-70 51-70 103 0 29 15 45 43 46 52 0 58-58 61-106" id="w"/><g id="c"><use transform="matrix(0.06172839506172839,0,0,0.06172839506172839,0,0)" xlink:href="#t"/><use transform="matrix(0.06172839506172839,0,0,0.06172839506172839,14.814814814814813,0)" xlink:href="#u"/><use transform="matrix(0.06172839506172839,0,0,0.06172839506172839,20.98765432098765,0)" xlink:href="#v"/><use transform="matrix(0.06172839506172839,0,0,0.06172839506172839,33.33333333333333,0)" xlink:href="#w"/></g><path fill="#3a414a" d="M185-189c-5-48-123-54-124 2 14 75 158 14 163 119 3 78-121 87-175 55-17-10-28-26-33-46l33-7c5 56 141 63 141-1 0-78-155-14-162-118-5-82 145-84 179-34 5 7 8 16 11 25" id="x"/><path fill="#3a414a" d="M114-163C36-179 61-72 57 0H25l-1-190h30c1 12-1 29 2 39 6-27 23-49 58-41v29" id="y"/><path fill="#3a414a" d="M108 0H70L1-190h34L89-25l56-165h34" id="z"/><g id="d"><use transform="matrix(0.06172839506172839,0,0,0.06172839506172839,0,0)" xlink:href="#x"/><use transform="matrix(0.06172839506172839,0,0,0.06172839506172839,14.814814814814813,0)" xlink:href="#q"/><use transform="matrix(0.06172839506172839,0,0,0.06172839506172839,27.160493827160494,0)" xlink:href="#y"/><use transform="matrix(0.06172839506172839,0,0,0.06172839506172839,34.50617283950617,0)" xlink:href="#z"/><use transform="matrix(0.06172839506172839,0,0,0.06172839506172839,45.61728395061728,0)" xlink:href="#q"/><use transform="matrix(0.06172839506172839,0,0,0.06172839506172839,57.962962962962955,0)" xlink:href="#y"/></g><path fill="#3a414a" d="M127 0L80-88 50-66 37 0H6l51-261h31L57-100l99-90h39l-93 82L161 0h-34" id="A"/><path fill="#3a414a" d="M111-194c62-3 86 47 72 106H45c-7 38 6 69 45 68 27-1 43-14 53-32l24 11C152-15 129 4 87 4 38 3 12-23 12-71c0-70 32-119 99-123zm44 81c14-66-71-72-95-28-4 8-8 17-11 28h106" id="B"/><path fill="#3a414a" d="M6 0l50-261h32L37 0H6" id="C"/><path fill="#3a414a" d="M30-147c31-64 166-65 159 27C183-49 158 1 86 4 9 8 1-88 30-147zM88-20c53 0 68-48 68-100 0-31-11-51-44-50-52 1-68 46-68 97 0 32 13 53 44 53" id="D"/><path fill="#3a414a" d="M67-158c22-48 132-52 116 29L158 0h-32l25-140c3-38-53-32-70-12C52-117 51-52 38 0H6l36-190h30" id="E"/><g id="e"><use transform="matrix(0.061728395061728385,0,0,0.061728395061728385,0,0)" xlink:href="#t"/><use transform="matrix(0.061728395061728385,0,0,0.061728395061728385,14.814814814814813,0)" xlink:href="#A"/><use transform="matrix(0.061728395061728385,0,0,0.061728395061728385,25.925925925925924,0)" xlink:href="#B"/><use transform="matrix(0.061728395061728385,0,0,0.061728395061728385,38.2716049382716,0)" xlink:href="#C"/><use transform="matrix(0.061728395061728385,0,0,0.061728395061728385,43.148148148148145,0)" xlink:href="#B"/><use transform="matrix(0.061728395061728385,0,0,0.061728395061728385,55.49382716049382,0)" xlink:href="#u"/><use transform="matrix(0.061728395061728385,0,0,0.061728395061728385,61.66666666666666,0)" xlink:href="#D"/><use transform="matrix(0.061728395061728385,0,0,0.061728395061728385,74.01234567901233,0)" xlink:href="#E"/></g></defs></g></svg>