<svg xmlns="http://www.w3.org/2000/svg" xmlns:lucid="lucid" width="501" height="492.79"><g lucid:page-tab-id="0_0"><path d="M460.5 250.5c0 115.98-94.02 210-210 210s-210-94.02-210-210 94.02-210 210-210 210 94.02 210 210z" stroke="#3a414a" fill="#fff"/><path d="M290.5 40.5c0 22.1-17.9 40-40 40s-40-17.9-40-40 17.9-40 40-40 40 17.9 40 40zM500.5 180.5c0 22.1-17.9 40-40 40s-40-17.9-40-40 17.9-40 40-40 40 17.9 40 40zM420.5 420.5c0 22.1-17.9 40-40 40s-40-17.9-40-40 17.9-40 40-40 40 17.9 40 40zM160.5 420.5c0 22.1-17.9 40-40 40s-40-17.9-40-40 17.9-40 40-40 40 17.9 40 40zM80.5 180.5c0 22.1-17.9 40-40 40s-40-17.9-40-40 17.9-40 40-40 40 17.9 40 40zM95.12 63.87a4.76 4.76 0 0 1 6.73 0l44.03 44.03a4.76 4.76 0 0 1 0 6.73 4.76 4.76 0 0 1-6.73 0L95.12 70.6a4.76 4.76 0 0 1 0-6.73zM422 305.02a4.76 4.76 0 0 1 6.03-3l59.07 19.7a4.76 4.76 0 0 1 3 6 4.76 4.76 0 0 1-6.02 3.02l-59.06-19.7a4.76 4.76 0 0 1-3-6.02zM250.5 420.5a4.76 4.76 0 0 1 4.76 4.76v62.27a4.76 4.76 0 0 1-4.76 4.76 4.76 4.76 0 0 1-4.76-4.77v-62.27a4.76 4.76 0 0 1 4.76-4.76zM78.6 299.28a4.76 4.76 0 0 1-2.47 6.26l-57.1 24.8a4.76 4.76 0 0 1-6.27-2.46 4.76 4.76 0 0 1 2.47-6.26l57.1-24.8a4.76 4.76 0 0 1 6.27 2.46zM394.63 63.87a4.76 4.76 0 0 1 0 6.73l-44.03 44.03a4.76 4.76 0 0 1-6.73 0 4.76 4.76 0 0 1 0-6.73l44.03-44.03a4.76 4.76 0 0 1 6.73 0z" stroke="#3a414a" fill="#fff"/></g></svg>